<mxfile host="app.diagrams.net" modified="2021-08-16T14:21:52.806Z" agent="5.0 (X11; Linux x86_64) AppleWebKit/537.36 (KHTML, like Gecko) Chrome/91.0.4472.114 Safari/537.36" etag="5JbiAl0bmD7An7dO0nJb" version="14.9.6" type="github" pages="2">
  <diagram id="UEPHuSb97--CaBu0sHTg" name="Page-1">
    <mxGraphModel dx="1356" dy="713" grid="1" gridSize="10" guides="1" tooltips="1" connect="1" arrows="1" fold="1" page="1" pageScale="1" pageWidth="850" pageHeight="1100" math="0" shadow="0">
      <root>
        <mxCell id="0" />
        <mxCell id="1" parent="0" />
        <mxCell id="LkECDWKGIeq4xNy9bSiV-1" value="" style="rounded=0;whiteSpace=wrap;html=1;fillColor=#d5e8d4;strokeColor=#82b366;" parent="1" vertex="1">
          <mxGeometry x="40" y="320" width="1040" height="540" as="geometry" />
        </mxCell>
        <mxCell id="LkECDWKGIeq4xNy9bSiV-2" value="" style="rounded=1;whiteSpace=wrap;html=1;fillColor=#cce5ff;strokeColor=#36393d;" parent="1" vertex="1">
          <mxGeometry x="380" y="570" width="220" height="60" as="geometry" />
        </mxCell>
        <mxCell id="LkECDWKGIeq4xNy9bSiV-3" value="" style="rounded=1;whiteSpace=wrap;html=1;fillColor=#cce5ff;strokeColor=#36393d;" parent="1" vertex="1">
          <mxGeometry x="379.99999999999994" y="740" width="220" height="60" as="geometry" />
        </mxCell>
        <mxCell id="LkECDWKGIeq4xNy9bSiV-4" value="" style="rounded=1;whiteSpace=wrap;html=1;fillColor=#ffcccc;strokeColor=#36393d;" parent="1" vertex="1">
          <mxGeometry x="380.01" y="400" width="220" height="60" as="geometry" />
        </mxCell>
        <mxCell id="LkECDWKGIeq4xNy9bSiV-5" value="" style="rounded=1;whiteSpace=wrap;html=1;fillColor=#dae8fc;strokeColor=#6c8ebf;" parent="1" vertex="1">
          <mxGeometry x="385" y="200" width="220" height="60" as="geometry" />
        </mxCell>
        <mxCell id="LkECDWKGIeq4xNy9bSiV-7" value="" style="dashed=0;outlineConnect=0;html=1;align=center;labelPosition=center;verticalLabelPosition=bottom;verticalAlign=top;shape=mxgraph.webicons.apache;gradientColor=#DFDEDE" parent="1" vertex="1">
          <mxGeometry x="388" y="574" width="60" height="50" as="geometry" />
        </mxCell>
        <mxCell id="LkECDWKGIeq4xNy9bSiV-8" value="" style="aspect=fixed;perimeter=ellipsePerimeter;html=1;align=center;shadow=0;dashed=0;spacingTop=3;image;image=img/lib/active_directory/internet_cloud.svg;" parent="1" vertex="1">
          <mxGeometry x="398.5" y="205" width="79.37" height="50" as="geometry" />
        </mxCell>
        <mxCell id="LkECDWKGIeq4xNy9bSiV-10" value="&lt;font style=&quot;font-size: 24px&quot;&gt;Internet&lt;/font&gt;" style="text;html=1;strokeColor=none;fillColor=none;align=center;verticalAlign=middle;whiteSpace=wrap;rounded=0;" parent="1" vertex="1">
          <mxGeometry x="450" y="210" width="150" height="50" as="geometry" />
        </mxCell>
        <mxCell id="LkECDWKGIeq4xNy9bSiV-13" value="&lt;font&gt;&lt;span style=&quot;font-size: 24px&quot;&gt;Apache&lt;/span&gt;&lt;br&gt;&lt;font style=&quot;font-size: 12px&quot;&gt;Web Server with mod_php&lt;/font&gt;&lt;br&gt;&lt;/font&gt;" style="text;html=1;strokeColor=none;fillColor=none;align=center;verticalAlign=middle;whiteSpace=wrap;rounded=0;" parent="1" vertex="1">
          <mxGeometry x="448" y="570" width="150" height="50" as="geometry" />
        </mxCell>
        <mxCell id="LkECDWKGIeq4xNy9bSiV-14" value="&lt;span style=&quot;font-size: 24px&quot;&gt;MySQL 5.5&lt;/span&gt;&lt;br&gt;&lt;font style=&quot;font-size: 12px&quot;&gt;RDS Database&lt;/font&gt;" style="text;html=1;strokeColor=none;fillColor=none;align=center;verticalAlign=middle;whiteSpace=wrap;rounded=0;" parent="1" vertex="1">
          <mxGeometry x="447.99999999999994" y="745" width="150" height="50" as="geometry" />
        </mxCell>
        <mxCell id="LkECDWKGIeq4xNy9bSiV-16" value="" style="rounded=1;whiteSpace=wrap;html=1;fillColor=#1ba1e2;strokeColor=#006EAF;fontColor=#ffffff;" parent="1" vertex="1">
          <mxGeometry x="130" y="286.25" width="220" height="60" as="geometry" />
        </mxCell>
        <mxCell id="LkECDWKGIeq4xNy9bSiV-17" value="&lt;font style=&quot;font-size: 24px&quot;&gt;DigitalOcean&lt;br&gt;&lt;/font&gt;&lt;font style=&quot;font-size: 12px&quot;&gt;Virtual Machine&lt;/font&gt;" style="text;html=1;strokeColor=none;fillColor=none;align=center;verticalAlign=middle;whiteSpace=wrap;rounded=0;" parent="1" vertex="1">
          <mxGeometry x="198" y="291.25" width="150" height="50" as="geometry" />
        </mxCell>
        <mxCell id="LkECDWKGIeq4xNy9bSiV-19" value="&lt;div style=&quot;text-align: justify&quot;&gt;&lt;div&gt;memory_limit=128M&lt;/div&gt;&lt;div&gt;max_execution_time=30&lt;/div&gt;&lt;div&gt;max_file_uploads =20&lt;/div&gt;&lt;div&gt;max_input_vars&lt;span&gt; &lt;/span&gt;= 1000&lt;/div&gt;&lt;div&gt;post_max_size&lt;span&gt; &lt;/span&gt;= 8M&lt;/div&gt;&lt;div&gt;max_input_time&lt;span&gt; &lt;/span&gt;= 60&lt;/div&gt;&lt;div&gt;upload_max_filesize&lt;span&gt; &lt;/span&gt;= 2M&lt;/div&gt;&lt;/div&gt;" style="text;html=1;strokeColor=none;fillColor=none;align=center;verticalAlign=middle;whiteSpace=wrap;rounded=0;" parent="1" vertex="1">
          <mxGeometry x="170" y="549" width="150" height="100" as="geometry" />
        </mxCell>
        <mxCell id="LkECDWKGIeq4xNy9bSiV-20" value="&lt;div style=&quot;text-align: justify&quot;&gt;&lt;div&gt;max_allowed_packet&amp;nbsp; &amp;nbsp; &amp;nbsp; = 16M&lt;/div&gt;&lt;div&gt;innodb_buffer_pool_size = 134M&lt;/div&gt;&lt;div&gt;tmp_table_size = 33M&lt;/div&gt;&lt;div&gt;max_heap_table_size = 33M&lt;/div&gt;&lt;/div&gt;" style="text;html=1;strokeColor=none;fillColor=none;align=center;verticalAlign=middle;whiteSpace=wrap;rounded=0;" parent="1" vertex="1">
          <mxGeometry x="116.39999999999998" y="720" width="200" height="100" as="geometry" />
        </mxCell>
        <mxCell id="LkECDWKGIeq4xNy9bSiV-22" value="" style="html=1;shadow=0;dashed=0;align=center;verticalAlign=middle;shape=mxgraph.arrows2.twoWayArrow;dy=0.65;dx=22;rotation=90;fillColor=#330033;" parent="1" vertex="1">
          <mxGeometry x="421.25" y="316.25" width="137.5" height="30" as="geometry" />
        </mxCell>
        <mxCell id="LkECDWKGIeq4xNy9bSiV-23" value="" style="html=1;shadow=0;dashed=0;align=center;verticalAlign=middle;shape=mxgraph.arrows2.twoWayArrow;dy=0.65;dx=22;rotation=90;fillColor=#330033;" parent="1" vertex="1">
          <mxGeometry x="441.25" y="501.25" width="97.5" height="30" as="geometry" />
        </mxCell>
        <mxCell id="LkECDWKGIeq4xNy9bSiV-24" value="" style="html=1;shadow=0;dashed=0;align=center;verticalAlign=middle;shape=mxgraph.arrows2.twoWayArrow;dy=0.65;dx=22;rotation=90;fillColor=#330033;" parent="1" vertex="1">
          <mxGeometry x="441.25" y="671.25" width="97.5" height="30" as="geometry" />
        </mxCell>
        <mxCell id="LkECDWKGIeq4xNy9bSiV-25" value="" style="html=1;shadow=0;dashed=0;align=center;verticalAlign=middle;shape=mxgraph.arrows2.twoWayArrow;dy=0.65;dx=22;rotation=20;fillColor=#330033;" parent="1" vertex="1">
          <mxGeometry x="600" y="620" width="181.72" height="30" as="geometry" />
        </mxCell>
        <mxCell id="LkECDWKGIeq4xNy9bSiV-27" value="&lt;b&gt;Port: 3306&lt;/b&gt;" style="text;html=1;align=center;verticalAlign=middle;resizable=0;points=[];autosize=1;strokeColor=none;" parent="1" vertex="1">
          <mxGeometry x="505" y="676.25" width="70" height="20" as="geometry" />
        </mxCell>
        <mxCell id="LkECDWKGIeq4xNy9bSiV-28" value="&lt;b&gt;HTTP/HTTPS&lt;/b&gt;" style="text;html=1;align=center;verticalAlign=middle;resizable=0;points=[];autosize=1;strokeColor=none;" parent="1" vertex="1">
          <mxGeometry x="495" y="326.25" width="90" height="20" as="geometry" />
        </mxCell>
        <mxCell id="LkECDWKGIeq4xNy9bSiV-29" value="" style="rounded=1;whiteSpace=wrap;html=1;fillColor=#b1ddf0;strokeColor=#10739e;" parent="1" vertex="1">
          <mxGeometry x="800" y="650" width="220" height="60" as="geometry" />
        </mxCell>
        <mxCell id="LkECDWKGIeq4xNy9bSiV-30" value="&lt;font&gt;&lt;font style=&quot;font-size: 24px&quot;&gt;Wordpress&lt;br&gt;&lt;/font&gt;&lt;font style=&quot;font-size: 12px&quot;&gt;CMS&lt;/font&gt;&lt;br&gt;&lt;/font&gt;" style="text;html=1;strokeColor=none;fillColor=none;align=center;verticalAlign=middle;whiteSpace=wrap;rounded=0;" parent="1" vertex="1">
          <mxGeometry x="870" y="655.45" width="150" height="50" as="geometry" />
        </mxCell>
        <mxCell id="LkECDWKGIeq4xNy9bSiV-31" value="" style="dashed=0;outlineConnect=0;html=1;align=center;labelPosition=center;verticalLabelPosition=bottom;verticalAlign=top;shape=mxgraph.webicons.wordpress;fillColor=#35E2EE;gradientColor=#0E4D99" parent="1" vertex="1">
          <mxGeometry x="820" y="659.65" width="50" height="41.6" as="geometry" />
        </mxCell>
        <mxCell id="LkECDWKGIeq4xNy9bSiV-32" value="" style="html=1;shadow=0;dashed=0;align=center;verticalAlign=middle;shape=mxgraph.arrows2.twoWayArrow;dy=0.65;dx=22;rotation=-20;fillColor=#330033;" parent="1" vertex="1">
          <mxGeometry x="600" y="720" width="181.72" height="30" as="geometry" />
        </mxCell>
        <mxCell id="LkECDWKGIeq4xNy9bSiV-33" value="" style="shape=image;html=1;verticalAlign=top;verticalLabelPosition=bottom;labelBackgroundColor=#ffffff;imageAspect=0;aspect=fixed;image=https://cdn4.iconfinder.com/data/icons/logos-brands-5/24/digitalocean-128.png" parent="1" vertex="1">
          <mxGeometry x="150" y="291.25" width="47" height="47" as="geometry" />
        </mxCell>
        <mxCell id="LkECDWKGIeq4xNy9bSiV-34" value="" style="shape=image;html=1;verticalLabelPosition=bottom;verticalAlign=top;imageAspect=0;image=img/clipart/Gear_128x128.png;fillColor=none;" parent="1" vertex="1">
          <mxGeometry x="110" y="569" width="50" height="60" as="geometry" />
        </mxCell>
        <mxCell id="LkECDWKGIeq4xNy9bSiV-35" style="edgeStyle=orthogonalEdgeStyle;rounded=0;orthogonalLoop=1;jettySize=auto;html=1;exitX=1;exitY=0.5;exitDx=0;exitDy=0;entryX=0;entryY=0.5;entryDx=0;entryDy=0;" parent="1" source="LkECDWKGIeq4xNy9bSiV-36" target="LkECDWKGIeq4xNy9bSiV-2" edge="1">
          <mxGeometry relative="1" as="geometry" />
        </mxCell>
        <mxCell id="LkECDWKGIeq4xNy9bSiV-36" value="" style="shape=ext;double=1;rounded=1;whiteSpace=wrap;html=1;fillColor=none;" parent="1" vertex="1">
          <mxGeometry x="101.39999999999998" y="529.65" width="230" height="130" as="geometry" />
        </mxCell>
        <mxCell id="LkECDWKGIeq4xNy9bSiV-37" value="" style="shape=image;html=1;verticalLabelPosition=bottom;verticalAlign=top;imageAspect=0;image=img/clipart/Gear_128x128.png;fillColor=none;" parent="1" vertex="1">
          <mxGeometry x="66.39999999999998" y="740" width="50" height="60" as="geometry" />
        </mxCell>
        <mxCell id="LkECDWKGIeq4xNy9bSiV-38" style="edgeStyle=orthogonalEdgeStyle;rounded=0;orthogonalLoop=1;jettySize=auto;html=1;exitX=1;exitY=0.5;exitDx=0;exitDy=0;entryX=0;entryY=0.5;entryDx=0;entryDy=0;" parent="1" source="LkECDWKGIeq4xNy9bSiV-39" target="LkECDWKGIeq4xNy9bSiV-3" edge="1">
          <mxGeometry relative="1" as="geometry" />
        </mxCell>
        <mxCell id="LkECDWKGIeq4xNy9bSiV-39" value="" style="shape=ext;double=1;rounded=1;whiteSpace=wrap;html=1;fillColor=none;arcSize=24;" parent="1" vertex="1">
          <mxGeometry x="58" y="732" width="270" height="80" as="geometry" />
        </mxCell>
        <mxCell id="LkECDWKGIeq4xNy9bSiV-40" value="" style="outlineConnect=0;dashed=0;verticalLabelPosition=bottom;verticalAlign=top;align=center;html=1;shape=mxgraph.aws3.rds;gradientColor=none;fillColor=#FFB570;" parent="1" vertex="1">
          <mxGeometry x="398.5" y="745" width="51" height="50" as="geometry" />
        </mxCell>
        <mxCell id="LkECDWKGIeq4xNy9bSiV-42" value="" style="shape=image;html=1;verticalAlign=top;verticalLabelPosition=bottom;labelBackgroundColor=#ffffff;imageAspect=0;aspect=fixed;image=https://cdn4.iconfinder.com/data/icons/logos-brands-5/24/nginx-128.png" parent="1" vertex="1">
          <mxGeometry x="388" y="406" width="48" height="48" as="geometry" />
        </mxCell>
        <mxCell id="LkECDWKGIeq4xNy9bSiV-47" value="&lt;span style=&quot;font-size: 24px&quot;&gt;Ngnix&lt;/span&gt;&lt;br&gt;&lt;font style=&quot;font-size: 12px&quot;&gt;front end server&lt;/font&gt;&lt;span style=&quot;font-size: 24px&quot;&gt;&amp;nbsp;&lt;br&gt;&lt;/span&gt;" style="text;html=1;align=center;verticalAlign=middle;resizable=0;points=[];autosize=1;strokeColor=none;" parent="1" vertex="1">
          <mxGeometry x="441.25" y="406" width="110" height="40" as="geometry" />
        </mxCell>
        <mxCell id="LkECDWKGIeq4xNy9bSiV-52" value="&lt;b&gt;Port: 8081&lt;/b&gt;" style="text;html=1;align=center;verticalAlign=middle;resizable=0;points=[];autosize=1;strokeColor=none;" parent="1" vertex="1">
          <mxGeometry x="500" y="506.25" width="70" height="20" as="geometry" />
        </mxCell>
        <mxCell id="CjKhk1N5dlu_QhEQcH41-1" value="&lt;b&gt;&lt;font style=&quot;font-size: 18px&quot;&gt;Elaf&lt;/font&gt;&lt;/b&gt;" style="text;html=1;align=center;verticalAlign=middle;resizable=0;points=[];autosize=1;strokeColor=none;" parent="1" vertex="1">
          <mxGeometry x="885" y="240" width="50" height="20" as="geometry" />
        </mxCell>
        <mxCell id="CjKhk1N5dlu_QhEQcH41-4" value="" style="rounded=1;whiteSpace=wrap;html=1;fillColor=#cce5ff;strokeColor=#36393d;" parent="1" vertex="1">
          <mxGeometry x="380" y="570" width="220" height="60" as="geometry" />
        </mxCell>
        <mxCell id="CjKhk1N5dlu_QhEQcH41-5" value="" style="rounded=1;whiteSpace=wrap;html=1;fillColor=#cce5ff;strokeColor=#36393d;" parent="1" vertex="1">
          <mxGeometry x="379.99999999999994" y="740" width="220" height="60" as="geometry" />
        </mxCell>
        <mxCell id="CjKhk1N5dlu_QhEQcH41-6" value="" style="rounded=1;whiteSpace=wrap;html=1;fillColor=#ffcccc;strokeColor=#36393d;" parent="1" vertex="1">
          <mxGeometry x="380" y="400" width="220" height="60" as="geometry" />
        </mxCell>
        <mxCell id="CjKhk1N5dlu_QhEQcH41-7" value="" style="rounded=1;whiteSpace=wrap;html=1;fillColor=#dae8fc;strokeColor=#6c8ebf;" parent="1" vertex="1">
          <mxGeometry x="386.4" y="10" width="220" height="60" as="geometry" />
        </mxCell>
        <mxCell id="CjKhk1N5dlu_QhEQcH41-8" value="" style="dashed=0;outlineConnect=0;html=1;align=center;labelPosition=center;verticalLabelPosition=bottom;verticalAlign=top;shape=mxgraph.webicons.apache;gradientColor=#DFDEDE" parent="1" vertex="1">
          <mxGeometry x="390" y="405" width="60" height="50" as="geometry" />
        </mxCell>
        <mxCell id="CjKhk1N5dlu_QhEQcH41-9" value="" style="aspect=fixed;perimeter=ellipsePerimeter;html=1;align=center;shadow=0;dashed=0;spacingTop=3;image;image=img/lib/active_directory/internet_cloud.svg;" parent="1" vertex="1">
          <mxGeometry x="396.4" y="13.740000000000009" width="81.37" height="51.26" as="geometry" />
        </mxCell>
        <mxCell id="CjKhk1N5dlu_QhEQcH41-10" value="" style="shape=image;html=1;verticalAlign=top;verticalLabelPosition=bottom;labelBackgroundColor=#ffffff;imageAspect=0;aspect=fixed;image=https://cdn4.iconfinder.com/data/icons/logos-and-brands/512/256_Php_logo-128.png" parent="1" vertex="1">
          <mxGeometry x="386.4" y="562" width="76" height="76" as="geometry" />
        </mxCell>
        <mxCell id="CjKhk1N5dlu_QhEQcH41-11" value="&lt;font style=&quot;font-size: 24px&quot;&gt;Internet&lt;/font&gt;" style="text;html=1;strokeColor=none;fillColor=none;align=center;verticalAlign=middle;whiteSpace=wrap;rounded=0;" parent="1" vertex="1">
          <mxGeometry x="456.4" y="15" width="150" height="50" as="geometry" />
        </mxCell>
        <mxCell id="CjKhk1N5dlu_QhEQcH41-12" value="&lt;font&gt;&lt;span style=&quot;font-size: 24px&quot;&gt;Apache&lt;/span&gt;&lt;br&gt;&lt;font style=&quot;font-size: 12px&quot;&gt;Web Server with mod_php&lt;/font&gt;&lt;br&gt;&lt;/font&gt;" style="text;html=1;strokeColor=none;fillColor=none;align=center;verticalAlign=middle;whiteSpace=wrap;rounded=0;" parent="1" vertex="1">
          <mxGeometry x="450" y="405" width="150" height="50" as="geometry" />
        </mxCell>
        <mxCell id="CjKhk1N5dlu_QhEQcH41-13" value="&lt;span style=&quot;font-size: 24px&quot;&gt;MySQL 8.0&lt;/span&gt;&lt;br&gt;&lt;font style=&quot;font-size: 12px&quot;&gt;RDS Database&lt;/font&gt;" style="text;html=1;strokeColor=none;fillColor=none;align=center;verticalAlign=middle;whiteSpace=wrap;rounded=0;" parent="1" vertex="1">
          <mxGeometry x="458.2799999999999" y="745" width="150" height="50" as="geometry" />
        </mxCell>
        <mxCell id="CjKhk1N5dlu_QhEQcH41-14" value="&lt;font&gt;&lt;span style=&quot;font-size: 24px&quot;&gt;PHP 7.4&lt;/span&gt;&lt;br&gt;&lt;font style=&quot;font-size: 12px&quot;&gt;Backend Language&lt;/font&gt;&lt;br&gt;&lt;/font&gt;" style="text;html=1;strokeColor=none;fillColor=none;align=center;verticalAlign=middle;whiteSpace=wrap;rounded=0;" parent="1" vertex="1">
          <mxGeometry x="458.28" y="575" width="150" height="50" as="geometry" />
        </mxCell>
        <mxCell id="CjKhk1N5dlu_QhEQcH41-15" value="" style="rounded=1;whiteSpace=wrap;html=1;fillColor=#1ba1e2;strokeColor=#006EAF;fontColor=#ffffff;" parent="1" vertex="1">
          <mxGeometry x="130" y="286.25" width="220" height="60" as="geometry" />
        </mxCell>
        <mxCell id="CjKhk1N5dlu_QhEQcH41-16" value="&lt;font style=&quot;font-size: 24px&quot;&gt;AWS&lt;br&gt;&lt;/font&gt;&lt;font style=&quot;font-size: 12px&quot;&gt;EC2 Instance&lt;br&gt;&lt;/font&gt;" style="text;html=1;strokeColor=none;fillColor=none;align=center;verticalAlign=middle;whiteSpace=wrap;rounded=0;" parent="1" vertex="1">
          <mxGeometry x="198" y="291.25" width="150" height="50" as="geometry" />
        </mxCell>
        <mxCell id="CjKhk1N5dlu_QhEQcH41-17" value="&lt;div style=&quot;text-align: justify&quot;&gt;&lt;div&gt;memory_limit=128M&lt;/div&gt;&lt;div&gt;max_execution_time=30&lt;/div&gt;&lt;div&gt;max_file_uploads =20&lt;/div&gt;&lt;div&gt;max_input_vars&lt;span&gt; &lt;/span&gt;= 1000&lt;/div&gt;&lt;div&gt;post_max_size&lt;span&gt; &lt;/span&gt;= 8M&lt;/div&gt;&lt;div&gt;max_input_time&lt;span&gt; &lt;/span&gt;= 60&lt;/div&gt;&lt;div&gt;upload_max_filesize&lt;span&gt; &lt;/span&gt;= 2M&lt;/div&gt;&lt;/div&gt;" style="text;html=1;strokeColor=none;fillColor=none;align=center;verticalAlign=middle;whiteSpace=wrap;rounded=0;" parent="1" vertex="1">
          <mxGeometry x="170" y="549" width="150" height="100" as="geometry" />
        </mxCell>
        <mxCell id="CjKhk1N5dlu_QhEQcH41-18" value="&lt;div style=&quot;text-align: justify&quot;&gt;&lt;div&gt;max_allowed_packet&amp;nbsp; &amp;nbsp; &amp;nbsp; = 4M&lt;/div&gt;&lt;div&gt;innodb_buffer_pool_size = 134M&lt;/div&gt;&lt;div&gt;tmp_table_size = 16M&lt;/div&gt;&lt;div&gt;max_heap_table_size = 16M&lt;/div&gt;&lt;/div&gt;" style="text;html=1;strokeColor=none;fillColor=none;align=center;verticalAlign=middle;whiteSpace=wrap;rounded=0;" parent="1" vertex="1">
          <mxGeometry x="116.39999999999998" y="720" width="200" height="100" as="geometry" />
        </mxCell>
        <mxCell id="CjKhk1N5dlu_QhEQcH41-20" value="" style="html=1;shadow=0;dashed=0;align=center;verticalAlign=middle;shape=mxgraph.arrows2.twoWayArrow;dy=0.65;dx=22;rotation=90;fillColor=#330033;" parent="1" vertex="1">
          <mxGeometry x="441.25" y="501.25" width="97.5" height="30" as="geometry" />
        </mxCell>
        <mxCell id="CjKhk1N5dlu_QhEQcH41-21" value="" style="html=1;shadow=0;dashed=0;align=center;verticalAlign=middle;shape=mxgraph.arrows2.twoWayArrow;dy=0.65;dx=22;rotation=90;fillColor=#330033;" parent="1" vertex="1">
          <mxGeometry x="441.25" y="671.25" width="97.5" height="30" as="geometry" />
        </mxCell>
        <mxCell id="CjKhk1N5dlu_QhEQcH41-22" value="" style="html=1;shadow=0;dashed=0;align=center;verticalAlign=middle;shape=mxgraph.arrows2.twoWayArrow;dy=0.65;dx=22;rotation=20;fillColor=#330033;" parent="1" vertex="1">
          <mxGeometry x="600" y="620" width="181.72" height="30" as="geometry" />
        </mxCell>
        <mxCell id="CjKhk1N5dlu_QhEQcH41-23" value="&lt;b&gt;PHP Socket&lt;/b&gt;" style="text;html=1;align=center;verticalAlign=middle;resizable=0;points=[];autosize=1;strokeColor=none;" parent="1" vertex="1">
          <mxGeometry x="500" y="506.25" width="80" height="20" as="geometry" />
        </mxCell>
        <mxCell id="CjKhk1N5dlu_QhEQcH41-24" value="&lt;b&gt;Port: 3306&lt;/b&gt;" style="text;html=1;align=center;verticalAlign=middle;resizable=0;points=[];autosize=1;strokeColor=none;" parent="1" vertex="1">
          <mxGeometry x="505" y="676.25" width="70" height="20" as="geometry" />
        </mxCell>
        <mxCell id="CjKhk1N5dlu_QhEQcH41-25" value="&lt;b&gt;HTTP/HTTPS&lt;/b&gt;" style="text;html=1;align=center;verticalAlign=middle;resizable=0;points=[];autosize=1;strokeColor=none;" parent="1" vertex="1">
          <mxGeometry x="500" y="300" width="90" height="20" as="geometry" />
        </mxCell>
        <mxCell id="CjKhk1N5dlu_QhEQcH41-26" style="edgeStyle=orthogonalEdgeStyle;rounded=0;orthogonalLoop=1;jettySize=auto;html=1;entryX=0;entryY=0.5;entryDx=0;entryDy=0;fontSize=15;" parent="1" source="CjKhk1N5dlu_QhEQcH41-27" target="CjKhk1N5dlu_QhEQcH41-46" edge="1">
          <mxGeometry relative="1" as="geometry" />
        </mxCell>
        <mxCell id="CjKhk1N5dlu_QhEQcH41-27" value="" style="rounded=1;whiteSpace=wrap;html=1;fillColor=#b1ddf0;strokeColor=#10739e;" parent="1" vertex="1">
          <mxGeometry x="800" y="650" width="190" height="60" as="geometry" />
        </mxCell>
        <mxCell id="CjKhk1N5dlu_QhEQcH41-28" value="PHP (Laravel)" style="text;html=1;strokeColor=none;fillColor=none;align=center;verticalAlign=middle;whiteSpace=wrap;rounded=0;" parent="1" vertex="1">
          <mxGeometry x="880" y="655.45" width="100" height="50" as="geometry" />
        </mxCell>
        <mxCell id="CjKhk1N5dlu_QhEQcH41-29" value="" style="html=1;shadow=0;dashed=0;align=center;verticalAlign=middle;shape=mxgraph.arrows2.twoWayArrow;dy=0.65;dx=22;rotation=-20;fillColor=#330033;" parent="1" vertex="1">
          <mxGeometry x="600" y="720" width="181.72" height="30" as="geometry" />
        </mxCell>
        <mxCell id="CjKhk1N5dlu_QhEQcH41-30" value="" style="shape=image;html=1;verticalAlign=top;verticalLabelPosition=bottom;labelBackgroundColor=#ffffff;imageAspect=0;aspect=fixed;image=https://cdn4.iconfinder.com/data/icons/logos-brands-5/24/digitalocean-128.png" parent="1" vertex="1">
          <mxGeometry x="150" y="291.25" width="47" height="47" as="geometry" />
        </mxCell>
        <mxCell id="CjKhk1N5dlu_QhEQcH41-31" value="" style="shape=image;html=1;verticalLabelPosition=bottom;verticalAlign=top;imageAspect=0;image=img/clipart/Gear_128x128.png;fillColor=none;" parent="1" vertex="1">
          <mxGeometry x="110" y="569" width="50" height="60" as="geometry" />
        </mxCell>
        <mxCell id="CjKhk1N5dlu_QhEQcH41-32" style="edgeStyle=orthogonalEdgeStyle;rounded=0;orthogonalLoop=1;jettySize=auto;html=1;exitX=1;exitY=0.5;exitDx=0;exitDy=0;entryX=0;entryY=0.5;entryDx=0;entryDy=0;" parent="1" source="CjKhk1N5dlu_QhEQcH41-33" target="CjKhk1N5dlu_QhEQcH41-4" edge="1">
          <mxGeometry relative="1" as="geometry" />
        </mxCell>
        <mxCell id="CjKhk1N5dlu_QhEQcH41-33" value="" style="shape=ext;double=1;rounded=1;whiteSpace=wrap;html=1;fillColor=none;arcSize=20;" parent="1" vertex="1">
          <mxGeometry x="100" y="535" width="230" height="130" as="geometry" />
        </mxCell>
        <mxCell id="CjKhk1N5dlu_QhEQcH41-34" value="" style="shape=image;html=1;verticalLabelPosition=bottom;verticalAlign=top;imageAspect=0;image=img/clipart/Gear_128x128.png;fillColor=none;" parent="1" vertex="1">
          <mxGeometry x="66.39999999999998" y="740" width="50" height="60" as="geometry" />
        </mxCell>
        <mxCell id="CjKhk1N5dlu_QhEQcH41-35" style="edgeStyle=orthogonalEdgeStyle;rounded=0;orthogonalLoop=1;jettySize=auto;html=1;exitX=1;exitY=0.5;exitDx=0;exitDy=0;entryX=0;entryY=0.5;entryDx=0;entryDy=0;" parent="1" source="CjKhk1N5dlu_QhEQcH41-36" target="CjKhk1N5dlu_QhEQcH41-5" edge="1">
          <mxGeometry relative="1" as="geometry" />
        </mxCell>
        <mxCell id="CjKhk1N5dlu_QhEQcH41-36" value="" style="shape=ext;double=1;rounded=1;whiteSpace=wrap;html=1;fillColor=none;" parent="1" vertex="1">
          <mxGeometry x="60" y="730" width="270" height="80" as="geometry" />
        </mxCell>
        <mxCell id="CjKhk1N5dlu_QhEQcH41-37" value="" style="outlineConnect=0;dashed=0;verticalLabelPosition=bottom;verticalAlign=top;align=center;html=1;shape=mxgraph.aws3.rds;gradientColor=none;fillColor=#FFB570;" parent="1" vertex="1">
          <mxGeometry x="398.5" y="745" width="51" height="50" as="geometry" />
        </mxCell>
        <UserObject label="&lt;b&gt;database-1.ckoyf9bwjrbs.us-east-2.rds.amazonaws.com&lt;/b&gt;" link="database-1.ckoyf9bwjrbs.us-east-2.rds.amazonaws.com" id="CjKhk1N5dlu_QhEQcH41-38">
          <mxCell style="text;whiteSpace=wrap;html=1;" parent="1" vertex="1">
            <mxGeometry x="358" y="800" width="330" height="30" as="geometry" />
          </mxCell>
        </UserObject>
        <mxCell id="CjKhk1N5dlu_QhEQcH41-39" value="" style="rounded=1;whiteSpace=wrap;html=1;gradientColor=#ffa500;fillColor=#ffcd28;strokeColor=#d79b00;" parent="1" vertex="1">
          <mxGeometry x="390" y="176" width="220" height="60" as="geometry" />
        </mxCell>
        <mxCell id="CjKhk1N5dlu_QhEQcH41-40" value="" style="shape=image;html=1;verticalAlign=top;verticalLabelPosition=bottom;labelBackgroundColor=#ffffff;imageAspect=0;aspect=fixed;image=https://cdn4.iconfinder.com/data/icons/logos-brands-5/24/cloudflare-128.png" parent="1" vertex="1">
          <mxGeometry x="400" y="172" width="68" height="68" as="geometry" />
        </mxCell>
        <mxCell id="CjKhk1N5dlu_QhEQcH41-41" value="&lt;font&gt;&lt;span style=&quot;font-size: 24px&quot;&gt;Cloudflare&lt;/span&gt;&lt;br&gt;&lt;font style=&quot;font-size: 12px&quot;&gt;DNS Only&lt;/font&gt;&lt;br&gt;&lt;/font&gt;" style="text;html=1;strokeColor=none;fillColor=none;align=center;verticalAlign=middle;whiteSpace=wrap;rounded=0;" parent="1" vertex="1">
          <mxGeometry x="460" y="181" width="150" height="50" as="geometry" />
        </mxCell>
        <mxCell id="CjKhk1N5dlu_QhEQcH41-42" value="" style="html=1;shadow=0;dashed=0;align=center;verticalAlign=middle;shape=mxgraph.arrows2.twoWayArrow;dy=0.65;dx=22;rotation=90;fillColor=#330033;" parent="1" vertex="1">
          <mxGeometry x="445.62" y="110" width="88.75" height="30" as="geometry" />
        </mxCell>
        <mxCell id="CjKhk1N5dlu_QhEQcH41-43" value="&lt;b&gt;HTTP/HTTPS&lt;/b&gt;" style="text;html=1;align=center;verticalAlign=middle;resizable=0;points=[];autosize=1;strokeColor=none;" parent="1" vertex="1">
          <mxGeometry x="510" y="120" width="90" height="20" as="geometry" />
        </mxCell>
        <mxCell id="CjKhk1N5dlu_QhEQcH41-44" value="" style="shape=image;html=1;verticalAlign=top;verticalLabelPosition=bottom;labelBackgroundColor=#ffffff;imageAspect=0;aspect=fixed;image=https://cdn4.iconfinder.com/data/icons/logos-3/256/laravel-128.png" parent="1" vertex="1">
          <mxGeometry x="820" y="656.98" width="46.95" height="46.95" as="geometry" />
        </mxCell>
        <mxCell id="CjKhk1N5dlu_QhEQcH41-45" value="&lt;div style=&quot;font-size: 23px;&quot;&gt;Amsat&lt;/div&gt;&lt;div style=&quot;font-size: 23px;&quot;&gt;(Customer Portal)&lt;/div&gt;" style="text;html=1;strokeColor=none;fillColor=none;align=center;verticalAlign=middle;whiteSpace=wrap;rounded=0;fontSize=23;" parent="1" vertex="1">
          <mxGeometry x="748.47" y="45" width="190" height="115" as="geometry" />
        </mxCell>
        <mxCell id="CjKhk1N5dlu_QhEQcH41-46" value="Process Manager" style="shape=image;verticalLabelPosition=bottom;labelBackgroundColor=none;verticalAlign=top;aspect=fixed;imageAspect=0;image=data:image/png,iVBORw0KGgoAAAANSUhEUgAAAdgAAAB3CAYAAACg5FEWAAAgAElEQVR4nO29+Xdc130nyP9lOhJQGwBSdjKT6XRYbwHjLLJsEZR9kkwmkUjKOekzY5EU5enTYxGU3TnpWLKk9HRrs7O0LFKgLQKK7CSWEosSqdiRLBKoeksVAGLhhpWkABS29z7zw/d+71LYigsESrrvnA9Zhap67757v/f7+W73vm2f29ULCwsLCwsLi9uLbVvdAAsLCwsLi08jLMFaWFhYWFhsAizBWlhYWFhYbAIswVpYWFhYWGwCLMFaWFhYWFhsAizBWlhYWFhYbAK23dN+DhYWFhYWFha3F5ZgLSwsLCwsNgHb7mnvg4WFhYWFhcXthSVYCwsLCwuLTYAlWAsLCwsLi02AJVgLCwsLC4tNgCVYCwsLCwuLTYAlWAsLCwsLi03Atu3tfbCwsLCwsLC4vbAEa2FhYWFhsQmwIWILCwsLC4tNgCVYCwsLCwuLTYANEVtYWFhYWGwCLMFaWFhYWFhsAizBWlhYWFhYbAK2bW8vw8LCwsLCwuL2YlubX4KFhYWFhYXF7YUlWAsLCwsLi03AlhLsDr8Xre29aPN7cU97H3Z4Adr8knSv2/wS7nED7PDpO21+CTu8Etp8+tv29j60tpdwj1vCPX4ZO/xe7PDovPf4ZezwSmjxyvic34c2v0Tf9ehaW93xre3UZnUvZWx3KW6/Q/QH9UlJ9kmbuD/63dYLj4XFVuEeNxD6ohf3+CFa20vifSC/s8MjbHfFXPLPoq09BOsSC4vNxpYRbKvXh7ZdZexwQ7T6AVoECRKhEKHy61bvHNraQ5pAuwS5tEdobe9Fazt9p8Uro9UPxPsSCrtoErW292K7S79p9QO07epDqx9ueccT1ERv9QO0tYfUD7uIePmz7e194rsBtvsRWjxLsBafbRR29WL7rnNo9QPs8EqkI7T5tMMjo5R1AuuFNr+X5todcA8Wn35sHcG2nxUk24ft3jm07SoLkonAE6XVDyQptrlnBfH0yt/u8Eq4x4vQ4vdhe3uI7W4f2vxAEhJNPOWt3uOWhKW79R3f2l4yJnqr/2HddwJpQKjvUb9svwM8cAuLrYTprQbanKC/E6mqyFebIOIdbigiYlt/DxaffmxhiDjQwp1Ehn/62DDePzuH2vwy5mrLeP9sDV87PII2n0iFwj3Ku9veHkoSOvifRzBwYR6jlxYxemEBoxeX6P8LCxi9NI+hS7P459Mz+Fy78pa3Eq1enwqFt59Fqx9gezt51ju8AG0ehbK2t5fJO2+n+93hBVZBWFhonugOTxjjHqVYWn0mX/qcP2vzS2jZRfNt69tv8VnAFoaIy+R1tpfRtquMF1+5DKQAUiBFghSJfP/SsSto21UWVipPFrJOaTL14p/f+0j7PQAk4CNBKt9/6Y8rd0QOtm1XGa3eObT6Ie7xiUR3eCW0CE+WDYodXqBC5cKbtR6shUUJ24sltO0q4x43EAaoSp2YUSpKrXD9RtsuO38sPh5sYYiYvLD//Ysl/PPp64IVBSkKopRHCvzz6ev49XvLxm/b/BLa2qnA4e1/naXf83nkORL1PgF2P1yV+dmthSBOL1TFTZ7Kw+b9PqkIlLIQoXPX5pAsPttobS+hbVcZLT7nXmk+FWSuVXivXp8opqS87T3tfSI6tPX3YPHpx5YR7A6/F7/3BzHigRqQpMJrVeSapsr75L9H/XP4wu/HRhXtdreMHV6Ad/71GoAEywBSLCluTpcNot790IAqlNpSCO+7/awg/ECEskT1dHsfWkVomLxdUSXt2/CWhcV2t08WOHGFfWt7rzRGqahJpVN2+FTs2NpesikWi48N27jC7uPGH399COPXlHeZprrLyuRqkiOQ4Mq1Zfyf//d5qEKGs8j7Zbz9rx+pr4kwM5DI8zLpduzrR5u/NfdcjzY/wKHOQRzuHMQPXxvHq6+Po6tnDP/P44M41DmI33qA8kiF9pLIG1N4vNAebHnbLSy2EjJl0t5LhqjQBytSRAlo5qdAXKmhxe/b8rZbfHZw0wS7wwtUCTz/71HRDn2nV363TSzDYYvz/31qGItLiRkG1og0rXuv51MBYHEhxX/+rxekldDqB/jZzz/Svr/2cf++fqN0f9MgPNIWv48I0qNcs/9AiL/5wSVE8Zy6X2lcUJ8sa/cxOb2EU6en8effHZU5W/2+uVI6v6skctPBHWNAWFhsKkTh0nZXGZ1masjUJ1Fl5uOZ+xYWAtuYCG4UbT6Rxvb2Mlo9sgppqQ3lRFu8AK1+iBax/KbQXsI9vxXjb0+MKTIBNB9VkejQxUUMXVzUyDJR8yYlzzYF8FLXOO75rRDb3TLe+vnV9Zm1nmA3GZQPonW7re0ltH8lwonuCczOJyvsgFTeewIkqfqbIN9l8dF8LcGJ7jH4eyK0+iEKu3opV+uFgmgpvFxoL30s92hhsZXgte+FdtIvre29K+3rVNqtiCs1tHp9QjdZWGw+bppgSZn3osUL0OYTabX5JSog8EIR2gwFk5/Fb9xXxbs/n1nTawUoX/rBuVkUd4co7g7xwdkZQM+hQk0WfvPOmev49d8LcernM6uGmbeKYHmXqe1uH752cAhjUwsqx8w3siKMrXLPqWaBGzcPoDaf4G/+52Xhxcai2KNPkGu45UJlYbHp8PqowFHUKVDhX7DKjOeoUIJyZRrG0h0Li03GzRMse0ntJbWLknifE15tmx+gZVeI3/2jCIOj84pIkVDxUaoVJKVA199PYccXyDMrtJfQ9oUQr/79VenJpRopKeJZQvX8AkqVWe38W0+wjH0Hz2NujsxoWbClVTmnWNQarchW3oR8uyjDXVS4lSCqzOCBfTFafVpDW6gfCwuLTy1i5EXaqbVdFJW0h0jrU0zaNIrjOSJXO0csPibckgdbaA/R6p3DDlcjRZ8LcyiE8/Cj53FtJhGh3VSFPjXJX06AP/+rS8IipV2Z7vHVtoF//leXsJzAIGgiI42DNEJaz5H9uAi2zQ+w/9EBzM8vIgWwpN20cmJX0QbaEiUVEl+UofQ0Nc8zOw88fGhQKhleqrDVgmVhsZlo8c+JugZKkbS2UyGgnn8lYzWRRmwcz6mo2h1wDxafftxSDtb4W3uvXNPZ2l5Cq9eHb/3VGJaXl1cQo2KPBFevp/jTbwyJCXIO/+t9EX727gx+9u4M/rcvRrTObVcZX3tMELVGRBxG5Siy4eFuMcEWdvViZHRBXHXJXJ8LTQmgrloaFM5SYXMtJwv9tyJcPLeMr+yNsMMNZZi41bdhYotPObyyrLBnj7TNC0Wkizer0VQNEsTVj+Q+3lvefovPBG6aYAvtgahqFa/9EC3Cq237Qoiu169LwU6QKgrRCGZgZAH3/nEFLR7tZPQ7f1RBZXBefq1/cB6/84cUAm3xyvjiHw/g/PCC/L1BVMKz2ygL+3ER7LMvXJD3m2r/GyFiUJXwu2eu0jKdk+M40T2B989dx8yC5omvCBdDeupHnxykzSmEkuG+3GrBsrDYTJCMhyJaE4pwcYjHjgzhsc5RPHb0PB49OozHjgzhsPjbw4cGREHU1rff4rOBbayQbxwk5HlfKHW3hHx7iJ33B/jF2dlVmI49NrIs3/nFLH7jSxFaXfr9Q4+cx/Xr2nIV8b3p60vY98iQvN6/vy/EmX+bqSPrJYN4GiHYm7/vxjAyuqCFq+o86pQqgp9+YQStboC8R08GavHKKLjUt9vdPnz7yfN4/+ycuRGHdvzjm1eR9/uw3aGCsrwvfu/3bfr9WVhsNWRFsFdGmydI1isj75eFXqHP+Pt5se856xwLi83GBgQr1q96rPjF37wAeb+M7U6AvN+Hgkt5v/v+ZBCjlxY1YuGXegg0wcs/nMCOXREKXi9a/RDfevoylpaV+7msk0kKLC2n+NbTl9Hqxyh4vdixK8DLP5wwiStZNqqLYYSIVCVhx75+eQ8tnlhWJO43J54f29pAx7W6gSCyQBZ6tXhkcDywr6q1ZFn+n8qwboqHD/Rju9snz5X3hWLwFDkWXHp/qHMIUWUGSQosC2Ni5OKCoUTyfiDGg9pPY1ZC3g9QcKnKsuCKcJrWdr7fVjm2ZeQbJOhW8V3uQ/4dKzhuC/dzixeJ3Jnof/8cWrwIHP1YqRz7VHt5aYV2/YKr+r3VD5HzhOfu9Ukjo9Uro8XvQ84N1bgZ9xvINvPnjShgvreCWxLtD+TY5cUTnox2inmi9zm/ltf3+2S/bXT9gtcrf58T95j3A9qtyFf3kPdpjm53y2hx6JokV2Ux/wK0uL3I+wFyYvewFs/sg+0uyWJekxmWTbqXPnHekjK4N4K41wJHX3gOifug89DcYt1D/UL1DRvJD/chk670chtUjNtdaoec425gyLiuC1lvtGjyx3JHn4voEs+/BvULGcwlOSb5XXytgO5bXuec1u/8fyQ2pinL9/q18z6Nqz4PCmKnq0baV3BLyMnzK9nne97uRHIs9Xmn5pzoUzdSOqLBsfkkYW2CFZ2jBEspAb2DWhwS3j/7xgg+mlvNk+Sc6zKWloFvPjlKg9Nexj2/HeBEzzRS6Jsr1O0jLEOrCX74OlUZs+B988lRLC1DW8pTv7TFJOoUCXY/NCAVDd2jPrgmKaw7AViw/NBQrAWv1wgPA2ZhEpCgq2eM+rM9ljs08TlbPTWxaTJFyHmUb/reK1eE9wt89aFIjkHB6xUhezFBfOqjVkGu6hoUHmOy4YnHgq/IogHhcYTScJTxlaubbGrC9hH8QCpJ2ddSIfUZypQVEiuDNr8klScrDiKsSI5lm19C3uFK6lCMc1kSCuftWHnnPF5mpikKqVQbUYDi+5KQAmnIFPxYUzhlOY/UuQNFuG4JrW4k71c3sta7fotXRovbS3UPYkx4nNnIYAOl4J1V8uCVNTkngt3uMEGWZfukgnfFum7RzlavTxsbVvb0m7ZiY4on7wdS7nnusOJmo5HHmMenVcgYf2dd+fEUubEM6DLbSP8WxOMtW7wAuXY2psjIl0Trq8fkFVy6Ps2/QJJLwS1JcqXiz2jj63vCAHKVDm5xySFpcUvIC90lP2NiFYZc3pA73TASMsc60D2r6UEhiw3ogO1un5zfkg/YWWHdpc0jqZM02S14tBkR9U2faLuZ6vqkY02CzWsWl27B8eSkwaaO+O5/v6hV7iay0EAnmamrCf7wkQFRCFXGzt0xPjg3K73NFYSsH9pnv+ybQfH+mB5b54X4w0cGMHXVJNYVoWK5vAXYvX9ACpTu0fHE1L2MjSaA/lr32LpemzTIXuVdyRDo2FeRgq9HB9q80PSM/dDwVFq9c9h/aBD/5TvDdC3e0KNded6mhxeKtbHKamzxyiI/NYrDR4bwjSOjeKxzGIePDOFQ5xC8jrCx+/cDZN0SHj40gMOdgzh8ZASHRb6LMIKvHRyUhMhKrlVTlqTwxb0LY+5rB9W5HjsyiMc6h3HoifP4Rucwvrq3KpWIvE+/D/sO9aPr5Dg+OHsdcXUWUTyHcnUG//TmVTz7/BVxT5rH6fVpEZmyIecFLRqxHpjcladUlkqjxSvjv3xnFK92X0ZQXUBcnUUYf4SgMoN/OXMNf/ODK9h3qN/wMHIeKV8mtA3b4Aq5YIPXLeEbR0dkvvFQ5xAePTpK+cjOUTywLxaKkY1lkr99B8/jb35wBW+fmUTUP4dn/scFzfslmWQPLe8HIq/Zj8NHhvDo0WEc6uQc5zD2H+zHDjdsyANv9UPkHWXgfnVvFY89PiJlkdo+jMOdg3isc1R62q1+KHXRRvKjy+LhzkE8fGgAWbfUoAIno4L7eocbyn5u9cr46kMRvvviJbzafQUffFhDVLmKD3o/wonuMTz73EU8fGhQzUERvmZ5bSiFw+PKYe9dAdR4C53s9cn+ePToKE6cnMIHZ2cQVOYQxzOIKjMIqzV0nbyCo98dhLsnlqSfay9DesG+mvMNk5vPRnQJjx5V48S65ZDQCQ/sI10tZVo4bn96oB8neqbxzulJRPE8nn5htM7L3XpyvB1Y14Nt80KZ0yNBJsuLPdodvxXj5JvTGpPV5RsFycXn5/GFPwrl5O54eBAXLydY4tKnlJbcLK9ynmVBjOzVJljG5SsJOh4elGGOL/xRiPj8/AoyTqH7sPQIvN17q2gVioYHU1e2bZ7ySNdXEOxhBTLcxQJ3rPuKIlVoBCvecxiGQusivOiH0kJmZUbELcKNwqCRnocMJ7KlGqHFi4ywKRlCJWnFt3gBWneWZF+sXM4APHb0fEOCw952WK2tsIX4bEFlXhGBpwwRA1rbWtxeBJV5aolWFEbBjBRdJy/LZRYtXhn7D/YjqMzICIe+xInui5IN87UEP/vXKXh7qP9y8h76pMVOXkkZOa+xHB0reLo/UsK7OiKcODmF2tySEXlZmT2nPr82tYBnnxs1zsme2YZj4Ii+9EUI0g1MOUuBFAvyfddrk6qfnTIePjSAqDKj2bYJkABdPWPQPeAWl1YHsJddm+OxYdlelLIzOb3UsAfb5ghvUBgUVHFP6+ON3kqAqal56S1JL3oD+akTBQBAWK2psGoD4HFo82IpF8++cAnDF+agG9C6ztOvW5tfxpkzkzjUObQiDbMR9JRGqx9iu6PrGTrHA/tivPHWtFxnn+qrFTQ506OCp05fwzc6z5MOdALZp22eiLhInbRRG6n/t7tl6LvOKd1Cx4meS4JDaFnV4SOjJHdifnJ/dXVPGIbdVpDhZmBNguVQiE5APLhZvwRnT4xzpZmVilBXIgB+9h7ttMQhrANHRzE7D+XZJXpJve7NqtCyVFKJerLO7Dxw4OgoKRqvjF//vRA/e++6aoM4h2yXePFhaRb/YXdVy2UE0hIutAfIO31oJISj/77gltDiqBzV8Z4J1QRDV5AJ4e2uSoXOnjQ/ok4Ps+Y8kxwLbijDeNsdItScV5LkXHBVnorayMRLf8t5lCMzQtfGsYTDR4YayqNxODmMZuXdEbOqgY0q1ym3x7/z+1BweXevEgpiaRG3Ne8HiCrX5biZimsJJ7rHpKF3vGfCGFc9Cl//gAcgQZoAtRpw9MkhtLoBsn4vyCAR+cX2c7LvGi2CyWntf+LJUczOJ1KW0zX7WIknt3n0wgL27K0gp3n6jSj/vBch559F1tfH1UzT8OVPnJyiSIZbwjMvXBJtU5LJz2Du6rki5DkEh1hZ4eXcEO+cuSo3z9dTOan4f8++8w3JT94nPZLzz8LdE65igihF/Q9vToq5UZLyv5H81MsiAITRrJwrjfSvzDs7ZezZHyNgYqhr52qvZf+DnIQonsNjncPIeH0NyVfeL2O7d07KA0cduKbiRycnUKvBuD++boLU2B1OjbX63jtnrsLZEyPnEdEqfaRSMw3JX3ufJtCQfc/X7eqeEnqnjK6eMc0wMzuyq+eKUQex1cR4u7BNTzrryIlN5HNeCTk/kp5IwS2j4+EhXB5XeU99CY4ufC+9Mok2Ud2a9yI893cTov8XYCiCOqGURFu3EYMUFizRORLgub+bQF6E6traQ7z0yqQh76n2hs9/8co8du8/L5VHweuV5yCPoLRqn+jI+wEKfqwI0acihBYnxo9OTgDpyicB8fWfef4incMjkmTy4XOpAaL+ZgHlCmPOQ+U4ryrCcq3tJXEfqsBFz6W1iM+kkGtt5L89enQUBSfe8P7pvH2IKzVhieqKZglLSBFXFqRSYOTccNXXjLiyQJtyAKaSSFIiCTfEqTOTEPYW1IROhFxghcWnG1kpgGefu6z6ReTEcl4JBSeuK37aYPzbQ7S4FbzxliZzLHhYQpKYngR7tKqvyONYQor5GvDwgQHkZNhzozZEhpzmnYA7xJA5Htuu1yaR88r4q+cviQjBsuobbceWEyevCsOuhLzTh1Yh46z0nnhqWM4pVcCnvNrv/89LRp3GWiDSoCKXZ567rD1gUhtT4RHtO3heGLCBKGYrNSA/2iMrhWccV2rIN9A2DgVzdGn/oUHM1ZaQov5I6kXN6MvVdM8H52bh7Wng+kI3sO5s8ciRcPbEGB6ZVddiQwJL9F9ad23DCFIjlyDF1NQi9h8aRNaLxTiXxLU2bp/KgwdGX7McAEtIU6DrtUm0eSHe+OmEMbayX9gA7J6QRpJep/FJx5oEywNcf9MHHr+EmZoaKBVmVOO5uJTgG39xQQrHr95bwpvvfrRiMkvh14RTV9T6xhFsmRmKUyitN9/9CL96b0mS5Df+4gIWFlPZNmOLQnGu67PLeOTIJTFJiWhzbihCtI10HodxFJnlXPLUj3VPCgUhd8DQ/kvw0XyKB/ZRPjHfXpUKtdWrEnFqFjl7bHlfLOcRhWV5L0LWoWu3eBFZk9oEobxyqHmQkQwrGhpBCjq19VDnEFoaIBnyniJE8TzqD/Ycw2gW0tr1y8h6oZbvIWWZ9VT/t3hl5RHriiKhf451j+NvXx6XW0UaKQkpkqnW30uGnOi1Ad998RLaitzHWvWrE0rDZN37FxXfp967Lj1Hw1hk42DNbcXqNk1JlzFfW8a+g+cbVnKqWIv6z3hoBBIkWJac+8OeSRw8OkQfaQqOZx83s0soOo6MtHjKwMv5EdqKZYxPL9aJkLheCoxeqKGlgfZz5XuLW8LZs+aTsPSw+sTUkixSy/sBWpxQqypfW37SOsoGgCieR86PGurfVo+iXP4DIcYntSV39Yxal2aR4wkoWdQMnyUs47HO0YbmF8tk1qd57XREuDi6KPuarrtsOCapZvbIP2sGfv2YzS4sY//BCvWx25hzwbLHnKBHQmSUUYzjie4xPPHkqNqnIF0tfJ+g6+QVKhJtD5Ft0Mj9JGAdghWEIxR1qx/gv/3NlLDKE9mf9UplYmoJf/Afz1P4xgnx23+gbR5Rp2wMK6tO4ejCq18srRsdPmdlcB6//QcVtDghCm6IP/iP53FleglqFyXttwJJkuDZv54WOb1ICJjyHtdHpBWk6JO2jEOdg+I26q3eRfmqNreM/Qf7hZByBaUWghHhS92bpRwhTQDdm+XrstCrqt4S8l6/UXWZ9wNjU47luj4mgm1UgMqIRA5URiQkvyUIq7PSU5FemaMpRBGG1L8TVqnwjQiRvawlAAnePzuDVOtDXV7q96A1PWolM6xw5mrL2HdwgCq0hZJmg6kRLyfvB3j2uct1pKb+V2KqjJfVuDZNlzWbIMHI6By8jo2NPB7rVjeS3pvZDu11CnSdHMfE9PxK5SYIgK9/ontCMzDKtBRDXIM9xn94Uyviq5+3KeDs2bj9OZfmqftARZPHeoUC/ONPJ5FrL4sqXjUPGpMfPhHNw6gy0+Dc5vnUhx+/OWnqI7bxhVG1oq+hZAxQqyNYBk6dnm7IgFNRAOr79t0xhi/wJjx6rYsejUpMORefmzZBYsphAszOJ3j4wIAk9UY9SPasV15TvfnJW1OYnKypWhrUfTel+X3spOgXsa5/q4nxdmHtELEWXvzV3w3wDz+7bg6o7ByFsFqD/5WYPCevgj85MICpa2qT+lUH4iYPc4Do/6lri/iTAwPIexUU3BDeV2MElTlTwFJT+ADgJ/8yjc//DudQyTO71Y6dqaW6VEP3FvTJ8eM3p+F1xKK/I2NJFBMj5Z5EHlt4WzL8KytZWSmsr5RbvNWeOKKOQ51DDSmAnDAIOC+12qAGlRmpIDZqFy/34PPJ4LVehAOepKr/UqEwLg4vIKheF9GVlZXoqXYyJsU4nhGFY2YbVFtV23UjJedR1WuttuIy4loqHPf+uavo6p7CidfH8ZOfTmB6arluVzOzWCZBihPdE3R9RxUUyiU0bkUzqsw+XO2m+VqTkwviT2yg1EUAxN+O90zI8LfMVboV5Nqp+rPNKeHBR89rfQogVTnzFJQCKYgiHWUkRnLpBkcMWt1IhZw14tLn5/5HB+T32eNVlf5ry88qg4+gMiNSLhsTSMEtwd0Tyt+zzCjvkDA8UsPxngmc6CaU4hpU+F2rJ0mBmfkl+Hs4LbT+9ZWxT/f24YfXVSqmziHRvVSkwPCFeZSqczKUzHpIGoNGYRsZVyOjc7JdqpBqfTSiT+bm6obB0BNM/glOnLyqORu3rn/vFKzjwZLC9r4aoVxZkIKlW9t6Z/307ev4td+NRSgpwLefuYBkeXFlx+oDfQuHYe1qkzJZXsS3n7mAnMil/trvxvinn31UN8o0sMsi9LgMoBTPw/tqtGLy3iy6uqf05mnkahIGkGBuLsWP35rAnr0qLF8Q4eqCE1MozKdcOFvqXEFZcEvC2+XQa2RMTJ3Y7gSCXa09qytIMz2g/qbkZ74GPP3cBbhfER6WRxGF/QfOI67OwtzjOVk1XHvoiVEtLEZkwGSmr+/Nt8fCY6KikHJ1DkpBiLZppx8eXcC+gwNodStSqfM5jr0+pu5DMzrTdFlGFPbsjQTJqRSAXvCyIcFKJWzmvIAES1DFgimINHh+d3VPyPWmVOWrpSiEAtzuBJiaWgTn2ZCaMv3B2eti/vXKyE7BFUQtowRl5NwYp967Ktume2EpEoyMLmC7Q0Znzg21moWoAfmp74sbI9gWr4ynXrhs/F5/OVdbxsHOUeS8XuT8SHrRLV4ZTkeEZ56/iIkpVROwDOBEz6Toi3DD68vlNH4FTzw5qkLCxo0pj3qutoSu7qtwHhDrv8U6150PxOjqnsBcTaVLluU80o2kZRx//cqGxnDDBKvpebrOovTk6+czAPzopKoibjRM/UnAtvoiAd1S/P0/G8TUpJZnlf3Cey0R4T73d1fE+qkIO74QouvvpwyLyrS4knopubljtXNq13z19Unc89uRDG//j78dk0UxVJEsVIqmfCYnFvH7fzYo8z23AueBELMLZqGTvJa01vVCE/ro/bMzeOLJ0TpSKkuPgoUvq4WEc+IJOmYIbY1xbZBgN8LmEyyNSb1xwsfI6ALcPbEIHYbSI+INIFqcEN/7wWWDaPQ+57+VK/NG1aRUbJ5aB5r3qeKVieJQ55CKitSdDykwPLpEis5TofFCu8qVtrqBrOTV79NA2EkAACAASURBVJUUMf3/xlvTojpYeX9tXixy7fXpgdUJNoVJsIZhm5Lyn6mlePe9j/DqyXE8+vh5PLBvQBb9SUXniDa4vJ4zoNApn6q+diJNpRekwo5i4wdhIHJeda62LOcDK2Bu7/dfuYKsMDZ5K1Bzo5KbJ9iN5LvFK1MoXExa3ThLQdWxeVHXoO80xeuZaZ1vCc8+fwXztWWMTy+i4PXKgrEN55hXAe+WNz69aMiwHvVYlnNB5MvdWPYJ13Pk/TK+sjeSIWbp0dbViMzNpfA6Qm3M1uufjfWJkc5L1WxGkmJ8ehGnTk/j1ZPTOHxkiKro2/U0zacDaxJszith8lp9OMJcp7YwDzzyrQvgEvqdu0O831uj76dinavmMfI5bt+hEz+1la5Jwvhv5+awc3eIrEtLYL7+xCgWdBkTFrMsUFhOMHkV6xJUo2jxAjz2+IiyFo11JGrC0p+XtIlD35+eXkJXzxUiEW3ysmJlDz3vVWhCOH0otAfIevryitXbtt6xmQSr981qk0hXkDIiUf8qBcamFuA8EGpVpEppZoXVn/FDZNsDnOghIliuGwNdrB/YVxWKMVQFZiIHToqOlzhRpffbpz+qC7ml8v1cbQkP7KNITsEtC0IJ5WsZfnPK+OBcTd6b7k4w8VERVl17fFWIUj/G+sHyJAu7tCVuSBPUZoGnXrokl05lxTVIfthoUdelSEkFWVF0s//QkFGFboabE3Q+OSTbmuUoiyAYJrkj3x1eKTvaNNmzvwouruJlaHqV9Xrys0pn3BDBFtwySlWKb65Ymwvg4FGqVcj6tJ5XyqKIJtEcpfSNuyeWtQ20tKUR/VJGxg3w3RevSMdgtQjMxNQSnD1VuUENz80s97Nfkca4uyfE2JSqYVC2p5CWFDjWPdmQ/tuYYFVuWIp2Su19+oVRzVNVaa2sp3TcVhPj7cLaBOsH+PkvZyEoCJzvWhZ9d2Uiwf1/SruVZL0QHQ8PYuTykhF+MKUyMTy2Wz0kV8mKUvUBf7aMBCOXl7B7/3lkPfIA7//TQVpiJKw/+WxZ0Puf/3JW8w5vHjzJnn7+sizxV0s0lmTbqWc1S1InX3Efp967jgf2VWUuSm7JJvI05F1FYulOZBAOTzj99XrHjRBsztuYYHVreDXFZvytPkRcZwHzcotHjw4b61hZmWU9fScuLqQpk+W+jtC9dGycyMXlallScLyHccGPadchrx/eAxXUh3a5vezZMImY97fy/Z69FdDmAEIJGU+ESnCoc0R8v09WkqplW2sQrO6tJrocKW924MI8vA4yUGgce9HqViC35vQDaRhldcNDhGnzHhUTjk0tmP2aqp44dfojWQ3KfSvHSxD6P/yTWrphGpnklXHOOetxbi5A1mlUfla2K6jMGBX66xNIhHK/Fr7mU4m5+cyLF5B1aP9vNiB43bparytqWbjq31Njt7H+4HW9M8qQM5wdAEmKw0eGJDHl/AB52T8izM9zw6e1+t84Mmrek7RfSQanphaNnPfa/VMndyuO+tUhlDrwOqhGJ+eGyPmR+F/fzzlqaHw+KViTYAtuiN+4v4LRi0vcX3KMe8M5uB1VWWBz4MgI5mrLeoRWl2tFHJpg3PKhK486618Or7jm3FyKRx6n7QWzXghnTxXnglmjfWmaYuTCIv79l+NVva4bRdZXGz/sPziAiakls2O4vXWhJ3qn1ghLAyJJcaJnUlRoRmjepda2kodTAYeLOYyoQ1dI6x2bQbB8/fUIlr00XUFyX+ihrDOnr0IukXLVvTKpspeTF+TY6sfofHJEjbPsV5afJfzy3DV5Dt3DyWleHCuBo98ZgUwzGEskiNQ69kWyDRn+rXaPOT+SSrbglvHBh3Nm+ExUTANqbSD3jcz1aeOr96E+DuaaSHHeFDh/YR67OirIekSaBZ+WiXGVbl7ke6WB0G5eJ+v2yTXb33/lCkVg6paoAMDswqIkZdrEJZTGT84nMpycWFRRJG6zUCDf+8Flul+x9WRWPMiiXgGvJz91gnRDBJvzyjgrngpmijaN/VxtGQ8fVHOFjF4tesTzUcgQX7PFC4zK77XQ6ofwOmJqvqYvEiiH4p13r2nh4FAa12woSl2kRb7yXoS3z3BldCLOqRwopKClYjeg61Y7TIMkwYXROSFzJfA6fhkdEWtw+V5uh4Nzp2BbvSLWBTDrl/Clh/pxfVYVH7zx5jV87gt8gjL+v78b04wqNUipThKaQtuUEHHd2ireMkwXxjQB/tvfXqHdmvwyPveFAH//06tiVie4PruML+8dkArlVsFhN15y434lwqtiC0Ud3Elm6bwWzoP55fGpGh7rHJaCqMKFJUkCyjNZOaaNEmyj97kRwda3ZS2iZmVsEqy5OB5JiqNPXUTWo77NCqs965egF9S01N1vzg0xNbmknVPlTVPQDk9czMOhPumxCaLNeWUUnBj/+KbyaqTyFeMzPDIrPWn2BvVQLrWNiJLIUuSJNVnWX4fxR6KiPULO65Ubzuv9thbB1p+LP9p/sCIMEJoHetiZn9ZSb2TQ65Wh6gf2njf6Ub9mmqbYd6hfbNYQGZ5nzitj74FBw2NVr2mc9uyvyjFo8fukh1hwwxVRkbXkx7hxmAS7EfJ+gFe7r8ifp2m6wpCYryV46Qdj0tHgvlKkx6kcVRtBIfiVBvBqeOqFi3VjqHn5KfCtpy6Q0eMEyIpahIJb1ox7NX5k2JFcPnxoUJ5vZSTGNOzW65/1CLZeJvbsH6ibByoNITc28dlz77stOvhOwJoESyRBVsYff30IfdEC/vy/X0FeVDbm3BD3Pdiv4vdYNkdphRvLr83azps9ZLl8A9fUc2X3PdivEuntIf7r8xPoDefwJ48MGwn2W+3Yghtqa/eU19KxL8K7p6/DPJI1/gd4UhlbjCVqN6hse4BCUe1ss177WYDXO+4kgiXDY1kuzZmppVJ5qKrNQPO6SqLauiK8CdXvb5+5ZpBh/XIH3XrmEF/BLSPbHkAP+QUVqh5ONCMSYnxOnJxS9yvGn7cxzHllZD212TqHeg93DhpGqN6NtfkEWU+kAlzK6zK5rDa2a40D3/ep09dMctYq1uXf/UAjAOWVKc+5JI3vvB/gwsi8cVl9Xv74zWl5nvwu8lyzHq2PP9E9oeZlXQj0g7OrEKEgVn0sNpNgc14Z+w+chzkXNbmU7U4wObmAp5+/SO0T455rp3W6PDbK8O1d0wCu170/fnNazQGjAQnmayBZbecd4CJFTjLsKsa5/ZxKLYiagrGpBYOsdUO2kX7K+4E01FY9VLgSb5+ZlHM145dkikCfb3mvIu+jkf75pGBbjuPhN4H7HhpYvXMbPJTQJKbQSo9NzxPUVTLf5HHfQwM3fb+3E3v2VtDVPYXafGJszqD3g+wG7f5V3yV49rmLyLkxMm4JeUdYq25MQrvOtdcbj8NHRhq+h6wXIorn1jxfUJlb8f3VzqG/JwLTGqS9pPPFyMp73aB9bglZhzzK7z7HVbsrPUUgweEjI8g6NLmzIq/G/akr8Nqc8mLMMBjw7b+8IAlrw/Z5ZeSLVFS0UqZVuziX3+zSdzNupLXNxHpzIwVwqHMEGVd557cCDjF/7+UxQ071TRAmppbEeEVinGP525HRBekR1rf7mecv3lg71pKfuiOK51aVwfUQVK8bY71ct7mEbvxOTC3hxVfG4O6JpSxlXCVTObeKrBdLB2U95OVSML1fVTuCyryc5wVH9StdJ97w/KdOT2vnM3XL8OjCDfXRRseDB4fMMRN981nAlhGsER6S+TAKEamI6JISLM3CuhWSvVMItuCW0eQNoOCW8fRLl/HhhzPCt1c5OCbcZUBOZNkPIox86MgommVBjzj/HUKwUXzjBGucr86weu3kFVIgN0AQTMbf6Bw2qzA1CzsF8Ojjw6hXTFJZietlnQCGMhLeBZ9u+MI8gspcQ4hiQtBf0+5TGVjcvAcPDiHvkOeXK5alMt1oXOX8SkhuFuZT5J1A/H5jBbwRyNOI0bGvArXGsb5/l2i3LDdG3hGRB6eKjn398l7Ng4qdnI7GFfC68rOKPN4IwWbdEjr2nkdtXkXA2JCQOXNNjvj1fG0ZXd0TcDoiEbYVKQ1haDRigGUdfnBBnawKo+S1k2PGvWTdErJe3PDcONFzbUXEhK+VYPmGZGHVQ8jDxPQ82oqhcACEsbWGgfhpxNYSrBFq0T9Y5bXmzX4aCDbriMnnkAdacEPseWgQJ3quycdPyfxIaq4VlOH4lJ7EknX71ORdQ4Ey0RTWmhC4AwlWb1sKnOi5hkY9WOqHKoWM3RCPPi6WhEgSUzKXYJk8WI+9XnV+RejUr7wTkoosqL7Tl6U1cqQwC9+MuSCI+/Dj58XyGFpXmTe8axOqYbwFpjLUwmgWTb7I0TUYAVi3fw0ZmAft5qQv46Nr//XLY1K+s8JQeOkHY2tEr0Dh4RswADaLYAsOeZpZr4x9jwxivqbC2NqQqS0TUzaO1TE7D3z/B9NShjJu0HDf572I0hDCaEkSLR2Rpuh67SqlHZyAwqtCpzR6/meev2hacprxniK5ob5f/aD+ev/sDDJuJOU2K+fS1uvgjwNbGCJekgVGNB7r0Kb8jJcerNzIu9HjjiFYIZwqxxXKsOHOB6ro6p4Q4UjzUM9K4NzJMp747iUKRXlrK89PHsGuJKljPZdFnmvjCcphuIzYS/vRo8NmkYo8yHA73DmIZn5EmxgLdb5Y/l9/6BUFqXjf2E5liVHpy/aUIkZq16FvDlPhlPAAOOS4GmQj6u4tTVP85K2r0njYKIXQOGJk5KYZqohMXRkYGq0h71WQKdL2qRmf9q9momJjkeR5Gc+8cKWh8d1YflYeN0KwKtxK7/ce6MfwhTmYe2HrRow2N6WcJUiSBMMX5tHx4IA0qhtpA0VL9PPp/y/jeM8YssJwybi6QVhpqP8OHhkw5MXYdCJJb6jvVzvYKTj+2oQKZbshMiJtc3vk787HlnuwSFKj6CmtAx+0/jb91HiwPImyXoisXxGKsyoFl5cTBZU5bYME5cUvQRU+vPPuNWHJRmsK7yePYLlNygs73jOBrNuHhgnWKyPjRig4MQ4eWY1gVYHH4SOjyLpV4eFpeTMR2mPCrV/rL+U4TVYX3A2O+u0c1Unp9aNHR0Vel8LDei6zHuq36n9+29U9cdvCwzk3lF501gng3l+RFzNXC9A97N5blWPidEQyfGz0g/iZ21G9sXZsFsEaucyqkIkY3//BpNx9SqW4yDBa1qqgjf2mkxSz8wn2PzIoPP/GxsCQiTqp6eqeknLJUZosbwbSQAj28JHRFQ9OkUeKG+r71Q4+LRX+UdRJpjpum4F352NLi5yQkl76T39xGV//5hAeeXwUB45cwCOdhANHLuCRx0fx9W8O4T/9xWXaoOlW2BV3DsEWXJWXMATOKyHnxjJvk3EDeiSaPJbk5E3F3Ju4uowWh701lS80JoOjwlPrDMdtL3LS28EhMh2m9R2sKFJJNSV2ontMGiUbt4/IhDyRCIePjIjzKALQDZcDncN1IbzY6EcmW/4dEavYwk4ns8QMP697yI1GTOJPtRcHHlcFInmntG6Uwvwxe8R0vNp9BVm/JEPNtyq/nEvj8Xv/Q37knPKE2Ph45rnLMpLwzAu09EU9zEEtf3n39PXGC9galB/9uFEPtsURpOWrvZSzTgS3o4oT3WMilaOF9iXp6mHvJbl/e20+wZf2K9naCONTs2vey49OjkkZ1/uAdMjGBHbs9QnoBiY/NpTRaB+tpU/4PD86OUZVwk5A63RvQ3rik4Rt9QqvUeTcWyVYla+5594YWS9GxqFQEldtZoohMk4FWS/GPffGItxVt3PTDR5MsDd737cLGTdCxg0E+HVJeK+x/E7ODfGb90eYnzMVL//PoTidGDgXIz3kOmW01qETbCPjv7kEq1dX08H5udXOs/p5Bck6Ab79nYurrsVmEvi/OoeQcUvIOQOi/yLzXkUOyUzAqf5PAbxz5jpOnJzC8Z4JdHWvj2Pd4zjRM41j3ePo6p7AD1+7gq6eMbx6chJd3VM41j2O4z0T2LN/gOaBp4wFWZnqmR6cMZbiXnnZzKsnx2l++WTY3ar8Mkmw3D79/GXVNXU7kX1w9qockw8/nAPtZL7yMWqdfzlKS5tuaB7dHME2cl6u8s6Kfsu4yrjLimjTUy9cxIWReZGDX0m4vBaf7jNBXKmRTmvg3oLKvJRV+r16EtIHZ6+L+S1qDfQKeKE/1kNX91VxXhVp4DDx3Fza8PxfT58AwKuvjSl95vSL323cvk8Ltoxg5QbhKfD5L7I1HBmKkckn65bw+S9GMlez9kOsNz7uFILNOkysZmGCrtgznij398o4dfraGtEc6sOMU5EeBROQInD1Puusszk3bj/BsgKkJSZmu2SbPEXAKz1YgL2C8akEGaevoQlK549kYcWxnilxRj1npp6D2r67imZPyJvH+dtIjgm398LonDT05HiIWoLjPRPyuxsh68UygpERsp91S8i6VWS8PtXHTiC9Vl5iw8SqI+euskxHsFeKBF0nryHvlMQ93rrsNnsl6ZVm3ADu7qjOc0+06wPOnioyXoz5Wf2Ra2psZ2qU92vWlrVsPL4by49+3AjBcr/SdWhryKxIOfBneackax8OHhlGXJ1dkQM31usLb/FQ51BDffz+2RmY3rBaQUFLoEROk3PrQp4amR/UT+ppP0pkyAhodP6vS7BJiuM9Y2j2AtUmv/QZI9hVJmsjyLjBrYeIxfFr91YMpatbpPz3X7u3cluudd9DA3JS3gqkR+aWkHEqmiKmEG/Gi5EvRmjWvFMOB2fkmkYSPCJaniQRWEnnnYAUoh/iWPcVIDV3xwLUA52ZEDJuJKofyVPh88h7doK6/Jy57OnpF0bB1rD0dKRXbYYFc155xRM65Kb6UARbT/BrKUpDQap4q9bOBHseGpTf5TZKEhdt4zZn3AC5nTReAxdmzY5LTYI1FKtTkcUYrFS5f395blY1TzvfMoD3z11Hxi8Lr4KjCWqMZZtYtn3lDRU0Ms04tFGGvB/5u6roq0j2mU4W65mdXd0TZp/fovxLWWXvxBfbPhrL7BThfvvJUTzxpNoHV27PJ8bg1OlrdJ9en4haNXL9deRnlSOK5wz52Ei/ZZ0AGYdy/uwA6P2d8WI0uxXxug/5YgUHj5xXD0aXsqY/cQl4/a1rG1/fi/HD18aFnJqeJs+LfY8MouDERGBiFQGRfqD0jJDhrBciX6T2FzsqWnqE5TeRdQRvvDXdUP+zHK53sNytmPu3Kn+fEFiCven7Lykh82JFkJKI+vC9l8cwNFpDsSOS5MSKSXoScglDJJRzKEi2IgUxX4zwxpvXtLuo23QiTTVrtirJgYpiYkXkxVjkEcU5UvV7Po51j9N3ZUhS6ytWqJ4wMJyKwVmARjxYm2DX+5upIEXoSrvd1386Lqpq9bbEyDi9ou8r0L3IFifEl/cOaIpKOy/ob2Sx0xaCGVEgwuOpPEx6/dIPLq+8X60vnY5Iuz61sdkh0uXNInJuKEO1Gc2a5w0l9NRBwYnVGAgjzVBwGtlsRLD1Xt+tQLaD5dctofM7l2Sn6A8u4PD5qfeump4rfyi2wOQK2xsiwE0mWK7c5vQNGzUFt6zGWMhisyhULO4OMTQ6C/Zg6z179qTXv36EA0dH1drbVaqV/+XMNY3oIjQ7ZcPQzoi5n/HLosCIIiHPvDAuz6Onnfj1E0+d31gGLME2hJsOEX/iCfYWXX9DuWm7/rAiPtA5LMgmwewsPRmFcjkqx6R2tiHyKzgxsm6f8FrLUoAzfhlTU4tqotaFoSamFlV40Q2QdavmJGiPkPHosWSZolkMk8jsEZ17cHSewmEO54RjSIPCI8Jmz/bp5/XnrWq+cLKaBxutUIZq4ilSWREi1pY8APSQ9Y4HB6hNTp/oJ10RBrKqkg2Ld86oPae5vfqqsK6TV2AYIm6JCJfzRULhFdwQu/fGJsGmy0r3pUBXDxdixWh2+qQRpY93xo1Efo923eL2Zz0tRCrGkrwO0SaOjrimDPL7GyLYW5b/Enlw7D0JkqGHfizJ/mAOnZtdUg/9lv/Qw99n52ndZaZYVpGDBvRPI/KjHwbBNjK/NfLK+YGRQlBLT8qGDmAD+kDnsGlMJGq/9Die2/D6ORGCn53X70BVKXO+tGPvII2BePBHs5BT7pt8MTLkK+tEmJ5cNMaAXtLcqM0ncHb331AfrXcogtVSX7dB/j4p2NZIvmgt3PfQ+XU7t9HDJFiV49Anzu0j2PM3fb86WFA4b0STgpTll/YOYm4O0jonTynFD380jWJHRVqSGZEfZPKiXEUoySIvJutL//OK8ArUfs96HvDfzk7LXFhWemBqezomW17moS8MWdZIh4+DR4bBnrgqZBETRFsWQOsCAd59ql7BE8Eqb24tgtW/oxc58cGWdioW8//buRnkHUX+elg9K0KsXJgi1/tB7z8t1IYEew/0yzB/s9cHPXqg2klj1eLEGB6pQT4OLgWoGlh5xfsPDIvQYqhNNmpfs6d7QrEMce/9+gBO9Ewi60TIFysyvyfH0AnA3rAxJrKNUYME21iOeCPknQBNbq9sS84N0eyU8c4ZfWvBVXKy4rWMnqbAO2dmoPKbccNtWF9+Vh5MsGaB4Rrw+pBxI+w9MISR0Tl0PDhAc9Ij2brbC5B1q5oBpOXMxfzV0xz666gy08C9EZG/8dMJSYbyNNx5CRBWZ6UBxrlOM/JB0RMq0opwvGdMRm5kqN6INFylYriG+r4Rgp2qM1g+W9gmwwk3gdtPsHroLwZXTGbc202wN3/PqjApoocZOybJFjsiWVXIYbJEbCUH0PMWn37+sryvLFcASk9GGRZZt4qnXri8Sk7LzMU8/dw4cm6MZrFpNit0nuxZJxDr46iAhjZE16p09VBxCgyOLuI3O/rFJNXayblEJ8I7Z66a1aJy0qeyfSsJNtLG1Hy9QkFymBG86YK529c7Z64iX6QK84Lsf1VhWyhG2H/gPGpz/BjFVCo5vb1Tk0vKIBFeGa95ZM8161SQcwbQ5JDh99QLF42QGp+Ox4gegj2ArFPRwsLCw3Yqskq+WUQtHn18GHOLpOyeeeES7vZLwggzDc+Mp4Xneb5oY9I4wd4eUG6yClaezV6Ao0+O18mo1keGx6Q6be8jVWlYZ8RGCY3OwTXlZ5XDJNj1QbIVYniUojtzcym+98o4GbJ+KHUUjylHPphkDz4+gnqjk8msXJlvrG+dCjr2Dooc7splQNSnKU69R2tim72ADE+e/765w9Ozz3F6Y0mrQUjAz4IFQDUOfthQHzVKsPVG0GcJdxDBaoOmC6/AnUawGS+m5RNuRIUObhUZp4J/eW8aSZIYyny1HYTGJxfw4zev4WDnKPLFCE1OKPNxOTfGt74zQptMGGvVlNdKxxLmastwOyicSJZnhIynimFYqJudstizOMY//PTaCnYwd4tJMHKxhgNH6KHS2WK/CHdG2LO3H++fpXYto/7eaPKzh6wItnHUK8hEMVddUQblTnc/NCAtbgpXVpDxYrz4ymV8NMfPkuX2mRu1A8CLr4yRQpFLCVRouNnRvapIhHApxzsxtaS8WAApFg3SmKst49CRi6T43H7hHZeQ8cjrafYCOHsG6IkpdTe87+B5uo5RHEVjSe1SCvDGCPb2KY5mT5M3XsIiyLY2X7fNJ7TXethUGCMZkb8kGe6X8+pmsDHBNnaenBvjWPckgEUh4yQ7peocbavplmhJofBem71AGnm/2TGIkVEV2yWR4KUwKU40MBYsa81eoHLX2lxYrjM4g8oc9uztF3NfjJHbj6xbgrO7H2/803Xq83q7R9NTb5/+yHioRCO4MYL97OE2EuzNr03dfIJVbbtdBMvhmGbxAOkmJ8S3/3JkRRhMX+/HlqgeHtMrZaN4DrPzZuGB7slJMtMmxbHucaPfKLwVo8khr67ZU4qPFcfjT11Q59cmvnFdcYyMLuAXZz/C22emEcXz+hw3Ql9snes/vxWCTTWrXZGkviZwSX5+/sI8TnRP4NWTkzj13nVMTSbgyk2jvVC5JgC4PLWMYkfFGE8ixAjNToic1w8V7omQcfqR9WI0+SEOdY7INukhPNWX1L6R0QV87+UxHDxyHoeOjOLwN4fx1PNjOHWaitbkMg7NSJmppdh3UNQKiLFj5d3sUuTEHHN6vT7BTinZvS3KQ3nDzcWq9KqbvQD/ckY34FZWv2qDgTfempaGH1e53kq7bhfBfnnvAGq1unHVzjU+vYgfv3kNB46M4Df30Nh8eW8Vzz5/BROiXoIjGglSrWp3CYeOXGxIv2TE2O7cHWK+hlXnpzxEF/+89zpOdE/giScv4vuvXMHP3ruu7Tyl5oz+I36A/M49A7hRMsw66+f+j/dM3dD5Pm24Iwj281/cmGA//8U7i2BleEp4smzBPv38ZS3HqVuZGtEaxQpiFxWDPFH3XfFf3WS/MDKP4v1VqTCbtbZlPcqJZd0BzSMIZFHKxJTYhWiVPJkKoSaGB0KHetoPKxHeT7Z+RyKDYJ3K2v2pfaYIVsacZXtqc8swnztMYW5SYDCUmn4P3GGGIkiBJ54clWHcnB5mFrLX7ITSI+Cq74zLhSMRfvLW9RXKhY0BfeN09R2toGRFm1RhEMCPDIuNsc06AZr82AiNNkqwuqK7HQRLfUKFOM1upIw4p4JDR0brHjZg3Jp2JHjw4BDdj4g8ZNwId3s32J5V5Ge140YINqp7rmy97Oj3sGrHp/rLRM6PialEFks1gnyR+uOJJy+CN63QDWwAWALN5TRN5bI9pTtW1kasdi9HvzOije06c1UDRx0akrsGz/lpw00TbNYJ8MW9RLCmMlwlDLHKoTyeJXz+ixWoJRYi3OJxcQh9RgS7pCnyDS+gFJnWoC/uPX9LISh5/16IZrefilZEiPJur4J8McLBI8MYm1ShSSZRI9wpw5Xa+M71uAAAD4pJREFUhOEQmnxvKmldUddqwN4D/SpkKNqgikTWb/8zz1+Uk5GWEiyuJPX1OxfnL8xjZHRekXDdAxuYYHmXLlmpu0oekImCH2gubtx4uMEbP52S+W1ofZJqfca/M9oKFZ7kj94+M62qrp2KNDwaVQYcTj713nVghRHC101EVy3JsdeXr+hjzO3kM23Uvqxbwt1eRZJw1onk+XVDg8/56slJWex2ezzY9TE+aVa9K4NHtWtiaonaohkJjbZNFbXpsrWSYPX1o0FlTspgk6Pyp/T7MjIO1R186eF+1OaXpVHLTV+5wY1pnBrhcO2FGnvgUOcQmt1GyCYQhh9Fo3JuuOKZxiuMyLq/ychKmq7ofzWHEjzzwhUq3GoPG5b/TDGWVeR8boPchcF7vPuafC6zlF3nsxMyvmmCbXb7seuPBiAJItUJrcFDDPiv3VsxlAV7Cixgd3sVFSJugFvN02tKNwW+8H8MNCjgG09wJn8uKmh2yRvKFyMUOypmfo0n6qq7UCXaK+1pLKn+fVWpOzeXYu+BfrR4AZocWpLDIeFMcaX3vxqanBC/PFszwtS6MjAfLK02D2CCmK8l2PfIEMr9C2LsFw3vGqnyGDinQ6HXMnJayLoeOsFKQ0oop+M9E/jy3iotXVihWDjfrRqRavfF3i6Q4Genr6LZjXC3V1EVyDLf2ViBDctms9OHd85cF95DnaKrW8PIyj6RsrBcZzjR6x++Nr5h+9jzzriR9IhSLJgypRFuV/cEmp3QSBdsJn7y1nVjjGSNmUZ4P37zmtyMhYuEGp2bObdKdQU8H4WMRfGc0aEyNJukonp3ZaVy1q3KArasU0Heofz4z3vrK6JVTcXKyE79sSRlmJvzxk8nTENpXWgV396A1I+KZHVB09qnLW7Vt/FkQVvWf5PQPtEkX1V1vYbCxNx3A1o7uI/4MYxLON4zQfNe7/fPkDd78x6sqJi7NLYgxkrlvBo9WHA/dy9Zoc1iw/pMMRReZiC9s8/dG2si09ihC3eKBJfGFuiJM3JbxlsDt63ZKUtvu9mt4C43RnORjIWHHjmPsFoz2p2AFavYW9TwXOusfSGo/PYXvTXs3E1KsskRk6IYSqHNOhGa3PLG7S+W8R92VzE4qnZiWlEVnKQwdnkQk2emlmLfI0PIejH64pkV5MztpWpJGsOs6Ceudl6rXfUbTbCMLAPoem0SzW6Er/zJAIYvKE/W6KuUVJvuQejex9tnrklFkttJ/dbklskid82+XFf+nQpyO3kf2IpcSoXEVLy6Ml4RodCbnQITU4s4fGQUzcV4w/YRsZRIBotUkUy8pQq69KKiru4poegqRpHUZmHvgSHxlBm+U/PpOXJXrmKMJvEEo0wxlP264dwTD8Wguad0R7kyX+etUQQBAOLKAjJuSfYlb0rS7FBBEc+bbLEfzUXKCXd+5xImri5o46Sxkyan0slYw4vtem0SBaeqlpBteH+BkANhQBXLcvwPdY5gcloY3PUPr5AGjDkvDEMuSTE+JR5wUSyLNJdKPTQiH1L3eSVTlhMYkSxapiOq6cV93+1Zgt24g4sx7nJj3L9/CJXqvLDGb8CD1ZTMr/6eKMopUpj4LpfOnXUqaC7SZ7/6e/FKhdrQQUUG1YFZ7P7akCS/W+24ZtEHPDnv2inWthZF9WmRvEoyGGLc/+AAfvzmJGZqqdF8RbYcyuQJYebrzp79CI90DkslICdBMZQKg5Rt2FiORxgAzU4Zr56cBIeL9DGU/S3djyUElXnsfmgATU4VzQ4v+YGmbxKp6MNqDU07IwrHORU5xnd7qu9Ylrhd5laJZlSk6+S4lIedu6srq6G1/DD1pah1TikcyXmmJqeKzM6qHKOcGyNTLOPuIj1sojH5KImoQYXO50a4/6EKTp2ZMxSb3hZ9TKXBn1LF8YnXx7FzdxV3iwrjjdrXXIzRvDOQZNvkaPMDdQoVFCLOiO99HCG6ZiekPH+6aDy1iBt3YWSB7kXIQJMTosktN0z+LENNQtE3OTGadkYIqzUoT4rTCORRRZUZNO8sSQOqqRhIgpXncERVsNRxNKeefv4yRkYXVkYctIjUaiHkKF7AwcdH0OTEwtCMGpKvJl4iV4ylEd/k0NaMmWKMYkc/jnVPYm7B6FZDd3AbUq0vanPLON4zgZ27Y2msNe1UhX2ZndXGDTDxcBY9FcZFe4lox7HuSTQ7IeXVxfc/DgPvTsG2Zodu+EbBk4g6TSjNnRHYA5VKYA3QxOin8xWVB9vkqI0DmvhagmibxW9YUa+HTJGUUlMxICVYDKRlmimWb+qeDWikRt5qRSiIsrAGA3E/VTS5fdLKbnZCPPTIeZzonsAvzn6EuDprhHA4lxNUZnDq9DU8/fwY7ntoQCNUlXOVE84lpdzkaH2wUfs1C7lpJ1VNvvjK2IoQG5BgfHoJb787hQNHLpACKpblGD/54mUc75nA8Z4pvHpyHCe6J9DVPYWu7gk889xl1U/SA4uN8azvS2MdrNYGYAmvnpzEXS7lvpuErNz/YD++9/IEytUZcFiWi60mppbwzpnrePypC2guVpXMupE4T0XKA/VlP5p3lqTcrQfqByokU+8pJ/Wlhwbw1y+P4RdnZzEzv2R2p2jd6HANp967jidfvCyWabGxFgkjc4P2iX5s2hnJMT/eMyWf1vPqyXHtyT2TONQ5Qu1rVD5uEU1OjO+9PIagMoe4UkMY1RDFcwirNQSVGTz9/GWaLy4p3aZivzRUGul/1ju6bDUXYzzz3GVx/5MC0+LpRlfx3ecuCYOIjbtA/k4/L+sP+j9U+syN8KWHKvjeyxP45blZDMl6gCXBMUtYAhBUZvCTf7qK/QfOS30gZe5G+r5YlaTU5JDTobeTIhshnnrhMs6cvo7JCfNh8Ez4PA/osYHCmGF5K1aR8apKjt1yQ21kXZMphjjWPYmu7gmc6JnG8dd4/k/h1ZOTYge7SH5X547PAm6aYJscSnLfLZSDTrisGNaFEyovSiNFJl+pRPTfaASzMYEr0uZ23V2syLbfasdxyFMnPdUPffK1DIs4JTm5M8VQeh3NbkReC5NdMdD6coA2qxd9yr9li1YP+fE9Ux81Nn5ynMRvssLLzBRDNLm07lUfnyZHeRv6cpZ8MZJFVk1OiLs9zkVXcJdTpUnrBaQQnIohA9z2eoLlCDUTbYJldL02bZALRwvI86iK81aFAcBLlSpivEjB8T3K0DoraNmuamMyIH7DhlPWIUOl2QnR7PYjU4xxl9i4vtkJUbw/xkOHhpH9TdFvLi0BYgXMY5cVhtOG7RPelRwfJioxd4h8K9JzUPIZNERgtwppTLEydRVRcGTqbo8iKHKe8nzfWWq4/3XZusupIl8UHr0gClrDLZ6MtDPErzgRMjw/mUzFHKVzl6VRI41iV0XSWOblfHVC7e+aB254xOTN3OVUkdvZYP8VlUfP12c9IPWfU9b6VxSIOeREHDwyrNrk9st+NqJJPI+dsrqHoiLbjfqfxrCirl+MkS9WTAJ3qM85lC/n6ccgg3cCbppgycOMkSuWpYfYLDr2RiYw55HYyuH/9dcyjOM2MPEEpCWmkV9+Z1kQyG0aYJfzr5oVXKyK8GkISYJCIJvE5+xBS8WieWTyb14gFSJPCFYIksilhasMkLuLgWFYbNj/PNncfmk08LWk8VBnCFGeOVSeuxPKe+PwNPcz52ClNyZC5vUEy6+N58HW7Wl7vGdC+25Z9oVOmE1OiLvcGLmdVdkPWdFH7H3f5YaGsqQ29pEHpYWx1kUxljLf7IQyUsIKUHpjbtkw9lR/k9FFhFelNgnjin6zfvuyDoVJ6dz9QtYqJEs7IzIynH5xr1XDiPk4CFYRUkV54OKemoqBlB8mWyZ+GZ3aSG5ZtoQMcj+xYSXrIOr6XM5HMWYyXLyTyEk3CFjum9w+gzA5N856RRK6W6E5UIwlOdI8KEuP726v0tD9saxKkvaqJC9sWIi/0/31G4Y5pwA4hdDkhEImQmN+k65io0dFHhvxMDNiIxapv1yVI75L27VMjk+dkb7p8neH4KYJloVghSBoVvdGHqxUuhzu9AIj/NvkhIpo9MHSvrMWmByUZxDdMPmvf+8aIfJE5M9F+JXvMysno/JGVQ7XDMmosHNV/oZ2D6rIYhb978ryjJU13gDBKgtTTQzpTbhKCXCOr9kJpWJnL1eerxhrIedAyxuF2gSrykrrtSIIGbduq0SZzyXCPdY9vurY614eKd2qlKWMyxZ6rMLrO6taP1aVEhL31Wj/KYNEk0seY+GN6YqGPRlWtlnNA1YyZM6RtdonvRFXK4Zx1BgqUlcFRMa822TFQvcaoGlnRXqaWQ5pOyoCwvNeymSDxi/3ORm31ZUyWyTSUFGXWCPgWMqq/I1WOSvJq35Oefr5tCUtwgmQToYMsyojX87TnUFj/ad5mTzfpTGgzZ+M3n42hIU8sXGryyd7uCwrzfJ+qmq+NDgGsl80A9xIm/E4c1/pZLvJ8nenYBt3koXFx45iKMJXSgnGlZoICZulYOTBTklDacvbbmFhYbEBtm3oaVpYbAJUeItyhRQmr2o76NRtsScqEo3csYWFhcUdjG0cDrGw+DhBS7EolCT/7pYRxXPGig4+0lTsp+tUZLGMhYWFxZ0MS7AWWwIqsIjlOtkmp4q7vYp8oIC5ni9BikV0dU/hV5xA5nEtLCws7mRYgrXYUmS8AbnUq8kJEcdzde6r2likq3sKskrzDmi7hYWFxXqwBGuxJbhLrluNodbOVlCu8jpY8xFnKYBXuidlFaiFhYXFnQ5LsBZbArlcwhkAL826y6kiWxxAk0OveT2jWhLVL95bWFhY3PmwBGuxRVAL0mkNnvJm+XMiYfpMbZjA64O3uv0WFhYW68MSrIWFhYWFxSbAEqyFhYWFhcUmwBKshYWFhYXFJmDb3UV6yoyFhYWFhYXF7YMlWAsLCwsLi02AJVgLCwsLC4tNgCVYCwsLCwuLTYAlWAsLCwsLi02AJVgLCwsLC4tNgCVYCwsLCwuLTYAlWAsLCwsLi02AJVgLCwsLC4tNwLZfKVZgYWFhYWFhcXthCdbCwsLCwmITYAnWwsLCwsJiE2AJ1sLCwsLCYhOw7VeKVVhYWFhYWFjcXliCtbCwsLCw2ARYgrWwsLCwsNgEWIK1sLCwsLDYBFiCtbCwsLCw2ARs+3c7K7CwsLCwsLC4vbAEa2FhYWFhsQmwBGthYWFhYbEJsARrYWFhYWGxCbAEa2FhYWFhsQnY9u929sPCwsLCwsLi9mLb/7KzHxYWFhYWFha3F5ZgLSwsLCwsNgGWYC0sLCwsLDYB/z9v+NN4/o38PAAAAABJRU5ErkJggg==;" parent="1" vertex="1">
          <mxGeometry x="795.82" y="519" width="202.34" height="51" as="geometry" />
        </mxCell>
      </root>
    </mxGraphModel>
  </diagram>
  <diagram id="2ZO6tCFIXhEpmKuMKEsH" name="Page-2">
    <mxGraphModel dx="1356" dy="713" grid="1" gridSize="10" guides="1" tooltips="1" connect="1" arrows="1" fold="1" page="1" pageScale="1" pageWidth="850" pageHeight="1100" math="0" shadow="0">
      <root>
        <mxCell id="OqICIpuKd2iwtkI5fxDL-0" />
        <mxCell id="OqICIpuKd2iwtkI5fxDL-1" parent="OqICIpuKd2iwtkI5fxDL-0" />
        <mxCell id="waYZyIHNhnLpzjeqy3rW-0" value="" style="rounded=0;whiteSpace=wrap;html=1;fillColor=#d5e8d4;strokeColor=#82b366;" vertex="1" parent="OqICIpuKd2iwtkI5fxDL-1">
          <mxGeometry x="35" y="310" width="1040" height="540" as="geometry" />
        </mxCell>
        <mxCell id="waYZyIHNhnLpzjeqy3rW-1" value="" style="rounded=1;whiteSpace=wrap;html=1;fillColor=#cce5ff;strokeColor=#36393d;" vertex="1" parent="OqICIpuKd2iwtkI5fxDL-1">
          <mxGeometry x="380" y="570" width="220" height="60" as="geometry" />
        </mxCell>
        <mxCell id="waYZyIHNhnLpzjeqy3rW-2" value="" style="rounded=1;whiteSpace=wrap;html=1;fillColor=#cce5ff;strokeColor=#36393d;" vertex="1" parent="OqICIpuKd2iwtkI5fxDL-1">
          <mxGeometry x="379.99999999999994" y="740" width="220" height="60" as="geometry" />
        </mxCell>
        <mxCell id="waYZyIHNhnLpzjeqy3rW-3" value="" style="rounded=1;whiteSpace=wrap;html=1;fillColor=#ffcccc;strokeColor=#36393d;" vertex="1" parent="OqICIpuKd2iwtkI5fxDL-1">
          <mxGeometry x="380" y="400" width="220" height="60" as="geometry" />
        </mxCell>
        <mxCell id="waYZyIHNhnLpzjeqy3rW-4" value="" style="rounded=1;whiteSpace=wrap;html=1;fillColor=#dae8fc;strokeColor=#6c8ebf;" vertex="1" parent="OqICIpuKd2iwtkI5fxDL-1">
          <mxGeometry x="386.4" y="10" width="220" height="60" as="geometry" />
        </mxCell>
        <mxCell id="waYZyIHNhnLpzjeqy3rW-5" value="" style="dashed=0;outlineConnect=0;html=1;align=center;labelPosition=center;verticalLabelPosition=bottom;verticalAlign=top;shape=mxgraph.webicons.apache;gradientColor=#DFDEDE" vertex="1" parent="OqICIpuKd2iwtkI5fxDL-1">
          <mxGeometry x="390" y="405" width="60" height="50" as="geometry" />
        </mxCell>
        <mxCell id="waYZyIHNhnLpzjeqy3rW-6" value="" style="aspect=fixed;perimeter=ellipsePerimeter;html=1;align=center;shadow=0;dashed=0;spacingTop=3;image;image=img/lib/active_directory/internet_cloud.svg;" vertex="1" parent="OqICIpuKd2iwtkI5fxDL-1">
          <mxGeometry x="396.4" y="13.740000000000009" width="81.37" height="51.26" as="geometry" />
        </mxCell>
        <mxCell id="waYZyIHNhnLpzjeqy3rW-7" value="" style="shape=image;html=1;verticalAlign=top;verticalLabelPosition=bottom;labelBackgroundColor=#ffffff;imageAspect=0;aspect=fixed;image=https://cdn4.iconfinder.com/data/icons/logos-and-brands/512/256_Php_logo-128.png" vertex="1" parent="OqICIpuKd2iwtkI5fxDL-1">
          <mxGeometry x="386.4" y="562" width="76" height="76" as="geometry" />
        </mxCell>
        <mxCell id="waYZyIHNhnLpzjeqy3rW-8" value="&lt;font style=&quot;font-size: 24px&quot;&gt;Internet&lt;/font&gt;" style="text;html=1;strokeColor=none;fillColor=none;align=center;verticalAlign=middle;whiteSpace=wrap;rounded=0;" vertex="1" parent="OqICIpuKd2iwtkI5fxDL-1">
          <mxGeometry x="456.4" y="15" width="150" height="50" as="geometry" />
        </mxCell>
        <mxCell id="waYZyIHNhnLpzjeqy3rW-9" value="&lt;font&gt;&lt;span style=&quot;font-size: 24px&quot;&gt;Apache&lt;/span&gt;&lt;br&gt;&lt;font style=&quot;font-size: 12px&quot;&gt;Web Server with mod_php&lt;/font&gt;&lt;br&gt;&lt;/font&gt;" style="text;html=1;strokeColor=none;fillColor=none;align=center;verticalAlign=middle;whiteSpace=wrap;rounded=0;" vertex="1" parent="OqICIpuKd2iwtkI5fxDL-1">
          <mxGeometry x="450" y="405" width="150" height="50" as="geometry" />
        </mxCell>
        <mxCell id="waYZyIHNhnLpzjeqy3rW-10" value="&lt;span style=&quot;font-size: 24px&quot;&gt;MySQL 8.0&lt;/span&gt;&lt;br&gt;&lt;font style=&quot;font-size: 12px&quot;&gt;RDS Database&lt;/font&gt;" style="text;html=1;strokeColor=none;fillColor=none;align=center;verticalAlign=middle;whiteSpace=wrap;rounded=0;" vertex="1" parent="OqICIpuKd2iwtkI5fxDL-1">
          <mxGeometry x="458.2799999999999" y="745" width="150" height="50" as="geometry" />
        </mxCell>
        <mxCell id="waYZyIHNhnLpzjeqy3rW-11" value="&lt;font&gt;&lt;span style=&quot;font-size: 24px&quot;&gt;PHP 7.4&lt;/span&gt;&lt;br&gt;&lt;font style=&quot;font-size: 12px&quot;&gt;Backend Language&lt;/font&gt;&lt;br&gt;&lt;/font&gt;" style="text;html=1;strokeColor=none;fillColor=none;align=center;verticalAlign=middle;whiteSpace=wrap;rounded=0;" vertex="1" parent="OqICIpuKd2iwtkI5fxDL-1">
          <mxGeometry x="458.28" y="575" width="150" height="50" as="geometry" />
        </mxCell>
        <mxCell id="waYZyIHNhnLpzjeqy3rW-12" value="" style="rounded=1;whiteSpace=wrap;html=1;fillColor=#1ba1e2;strokeColor=#006EAF;fontColor=#ffffff;" vertex="1" parent="OqICIpuKd2iwtkI5fxDL-1">
          <mxGeometry x="130" y="286.25" width="220" height="60" as="geometry" />
        </mxCell>
        <mxCell id="waYZyIHNhnLpzjeqy3rW-13" value="&lt;font style=&quot;font-size: 24px&quot;&gt;AWS&lt;br&gt;&lt;/font&gt;&lt;font style=&quot;font-size: 12px&quot;&gt;EC2 Instance&lt;br&gt;&lt;/font&gt;" style="text;html=1;strokeColor=none;fillColor=none;align=center;verticalAlign=middle;whiteSpace=wrap;rounded=0;" vertex="1" parent="OqICIpuKd2iwtkI5fxDL-1">
          <mxGeometry x="198" y="291.25" width="150" height="50" as="geometry" />
        </mxCell>
        <mxCell id="waYZyIHNhnLpzjeqy3rW-14" value="&lt;div style=&quot;text-align: justify&quot;&gt;&lt;div&gt;memory_limit=128M&lt;/div&gt;&lt;div&gt;max_execution_time=30&lt;/div&gt;&lt;div&gt;max_file_uploads =20&lt;/div&gt;&lt;div&gt;max_input_vars&lt;span&gt; &lt;/span&gt;= 1000&lt;/div&gt;&lt;div&gt;post_max_size&lt;span&gt; &lt;/span&gt;= 8M&lt;/div&gt;&lt;div&gt;max_input_time&lt;span&gt; &lt;/span&gt;= 60&lt;/div&gt;&lt;div&gt;upload_max_filesize&lt;span&gt; &lt;/span&gt;= 2M&lt;/div&gt;&lt;/div&gt;" style="text;html=1;strokeColor=none;fillColor=none;align=center;verticalAlign=middle;whiteSpace=wrap;rounded=0;" vertex="1" parent="OqICIpuKd2iwtkI5fxDL-1">
          <mxGeometry x="170" y="549" width="150" height="100" as="geometry" />
        </mxCell>
        <mxCell id="waYZyIHNhnLpzjeqy3rW-15" value="&lt;div style=&quot;text-align: justify&quot;&gt;&lt;div&gt;max_allowed_packet&amp;nbsp; &amp;nbsp; &amp;nbsp; = 4M&lt;/div&gt;&lt;div&gt;innodb_buffer_pool_size = 134M&lt;/div&gt;&lt;div&gt;tmp_table_size = 16M&lt;/div&gt;&lt;div&gt;max_heap_table_size = 16M&lt;/div&gt;&lt;/div&gt;" style="text;html=1;strokeColor=none;fillColor=none;align=center;verticalAlign=middle;whiteSpace=wrap;rounded=0;" vertex="1" parent="OqICIpuKd2iwtkI5fxDL-1">
          <mxGeometry x="116.39999999999998" y="720" width="200" height="100" as="geometry" />
        </mxCell>
        <mxCell id="waYZyIHNhnLpzjeqy3rW-16" value="" style="html=1;shadow=0;dashed=0;align=center;verticalAlign=middle;shape=mxgraph.arrows2.twoWayArrow;dy=0.65;dx=22;rotation=90;fillColor=#330033;" vertex="1" parent="OqICIpuKd2iwtkI5fxDL-1">
          <mxGeometry x="421.25" y="301.25" width="137.5" height="30" as="geometry" />
        </mxCell>
        <mxCell id="waYZyIHNhnLpzjeqy3rW-17" value="" style="html=1;shadow=0;dashed=0;align=center;verticalAlign=middle;shape=mxgraph.arrows2.twoWayArrow;dy=0.65;dx=22;rotation=90;fillColor=#330033;" vertex="1" parent="OqICIpuKd2iwtkI5fxDL-1">
          <mxGeometry x="441.25" y="501.25" width="97.5" height="30" as="geometry" />
        </mxCell>
        <mxCell id="waYZyIHNhnLpzjeqy3rW-18" value="" style="html=1;shadow=0;dashed=0;align=center;verticalAlign=middle;shape=mxgraph.arrows2.twoWayArrow;dy=0.65;dx=22;rotation=90;fillColor=#330033;" vertex="1" parent="OqICIpuKd2iwtkI5fxDL-1">
          <mxGeometry x="441.25" y="671.25" width="97.5" height="30" as="geometry" />
        </mxCell>
        <mxCell id="waYZyIHNhnLpzjeqy3rW-19" value="" style="html=1;shadow=0;dashed=0;align=center;verticalAlign=middle;shape=mxgraph.arrows2.twoWayArrow;dy=0.65;dx=22;rotation=20;fillColor=#330033;" vertex="1" parent="OqICIpuKd2iwtkI5fxDL-1">
          <mxGeometry x="600" y="620" width="181.72" height="30" as="geometry" />
        </mxCell>
        <mxCell id="waYZyIHNhnLpzjeqy3rW-20" value="&lt;b&gt;PHP Socket&lt;/b&gt;" style="text;html=1;align=center;verticalAlign=middle;resizable=0;points=[];autosize=1;strokeColor=none;" vertex="1" parent="OqICIpuKd2iwtkI5fxDL-1">
          <mxGeometry x="500" y="506.25" width="80" height="20" as="geometry" />
        </mxCell>
        <mxCell id="waYZyIHNhnLpzjeqy3rW-21" value="&lt;b&gt;Port: 3306&lt;/b&gt;" style="text;html=1;align=center;verticalAlign=middle;resizable=0;points=[];autosize=1;strokeColor=none;" vertex="1" parent="OqICIpuKd2iwtkI5fxDL-1">
          <mxGeometry x="505" y="676.25" width="70" height="20" as="geometry" />
        </mxCell>
        <mxCell id="waYZyIHNhnLpzjeqy3rW-22" value="&lt;b&gt;HTTP/HTTPS&lt;/b&gt;" style="text;html=1;align=center;verticalAlign=middle;resizable=0;points=[];autosize=1;strokeColor=none;" vertex="1" parent="OqICIpuKd2iwtkI5fxDL-1">
          <mxGeometry x="500" y="300" width="90" height="20" as="geometry" />
        </mxCell>
        <mxCell id="waYZyIHNhnLpzjeqy3rW-23" style="edgeStyle=orthogonalEdgeStyle;rounded=0;orthogonalLoop=1;jettySize=auto;html=1;entryX=0;entryY=0.5;entryDx=0;entryDy=0;fontSize=15;" edge="1" parent="OqICIpuKd2iwtkI5fxDL-1" source="waYZyIHNhnLpzjeqy3rW-24" target="waYZyIHNhnLpzjeqy3rW-43">
          <mxGeometry relative="1" as="geometry" />
        </mxCell>
        <mxCell id="waYZyIHNhnLpzjeqy3rW-24" value="" style="rounded=1;whiteSpace=wrap;html=1;fillColor=#b1ddf0;strokeColor=#10739e;" vertex="1" parent="OqICIpuKd2iwtkI5fxDL-1">
          <mxGeometry x="800" y="650" width="190" height="60" as="geometry" />
        </mxCell>
        <mxCell id="waYZyIHNhnLpzjeqy3rW-25" value="PHP (Laravel)" style="text;html=1;strokeColor=none;fillColor=none;align=center;verticalAlign=middle;whiteSpace=wrap;rounded=0;" vertex="1" parent="OqICIpuKd2iwtkI5fxDL-1">
          <mxGeometry x="880" y="655.45" width="100" height="50" as="geometry" />
        </mxCell>
        <mxCell id="waYZyIHNhnLpzjeqy3rW-26" value="" style="html=1;shadow=0;dashed=0;align=center;verticalAlign=middle;shape=mxgraph.arrows2.twoWayArrow;dy=0.65;dx=22;rotation=-20;fillColor=#330033;" vertex="1" parent="OqICIpuKd2iwtkI5fxDL-1">
          <mxGeometry x="600" y="720" width="181.72" height="30" as="geometry" />
        </mxCell>
        <mxCell id="waYZyIHNhnLpzjeqy3rW-27" value="" style="shape=image;html=1;verticalAlign=top;verticalLabelPosition=bottom;labelBackgroundColor=#ffffff;imageAspect=0;aspect=fixed;image=https://cdn4.iconfinder.com/data/icons/logos-brands-5/24/digitalocean-128.png" vertex="1" parent="OqICIpuKd2iwtkI5fxDL-1">
          <mxGeometry x="150" y="291.25" width="47" height="47" as="geometry" />
        </mxCell>
        <mxCell id="waYZyIHNhnLpzjeqy3rW-28" value="" style="shape=image;html=1;verticalLabelPosition=bottom;verticalAlign=top;imageAspect=0;image=img/clipart/Gear_128x128.png;fillColor=none;" vertex="1" parent="OqICIpuKd2iwtkI5fxDL-1">
          <mxGeometry x="110" y="569" width="50" height="60" as="geometry" />
        </mxCell>
        <mxCell id="waYZyIHNhnLpzjeqy3rW-29" style="edgeStyle=orthogonalEdgeStyle;rounded=0;orthogonalLoop=1;jettySize=auto;html=1;exitX=1;exitY=0.5;exitDx=0;exitDy=0;entryX=0;entryY=0.5;entryDx=0;entryDy=0;" edge="1" parent="OqICIpuKd2iwtkI5fxDL-1" source="waYZyIHNhnLpzjeqy3rW-30" target="waYZyIHNhnLpzjeqy3rW-1">
          <mxGeometry relative="1" as="geometry" />
        </mxCell>
        <mxCell id="waYZyIHNhnLpzjeqy3rW-30" value="" style="shape=ext;double=1;rounded=1;whiteSpace=wrap;html=1;fillColor=none;arcSize=20;" vertex="1" parent="OqICIpuKd2iwtkI5fxDL-1">
          <mxGeometry x="100" y="535" width="230" height="130" as="geometry" />
        </mxCell>
        <mxCell id="waYZyIHNhnLpzjeqy3rW-31" value="" style="shape=image;html=1;verticalLabelPosition=bottom;verticalAlign=top;imageAspect=0;image=img/clipart/Gear_128x128.png;fillColor=none;" vertex="1" parent="OqICIpuKd2iwtkI5fxDL-1">
          <mxGeometry x="66.39999999999998" y="740" width="50" height="60" as="geometry" />
        </mxCell>
        <mxCell id="waYZyIHNhnLpzjeqy3rW-32" style="edgeStyle=orthogonalEdgeStyle;rounded=0;orthogonalLoop=1;jettySize=auto;html=1;exitX=1;exitY=0.5;exitDx=0;exitDy=0;entryX=0;entryY=0.5;entryDx=0;entryDy=0;" edge="1" parent="OqICIpuKd2iwtkI5fxDL-1" source="waYZyIHNhnLpzjeqy3rW-33" target="waYZyIHNhnLpzjeqy3rW-2">
          <mxGeometry relative="1" as="geometry" />
        </mxCell>
        <mxCell id="waYZyIHNhnLpzjeqy3rW-33" value="" style="shape=ext;double=1;rounded=1;whiteSpace=wrap;html=1;fillColor=none;" vertex="1" parent="OqICIpuKd2iwtkI5fxDL-1">
          <mxGeometry x="60" y="730" width="270" height="80" as="geometry" />
        </mxCell>
        <mxCell id="waYZyIHNhnLpzjeqy3rW-34" value="" style="outlineConnect=0;dashed=0;verticalLabelPosition=bottom;verticalAlign=top;align=center;html=1;shape=mxgraph.aws3.rds;gradientColor=none;fillColor=#FFB570;" vertex="1" parent="OqICIpuKd2iwtkI5fxDL-1">
          <mxGeometry x="398.5" y="745" width="51" height="50" as="geometry" />
        </mxCell>
        <UserObject label="&lt;b&gt;database-1.ckoyf9bwjrbs.us-east-2.rds.amazonaws.com&lt;/b&gt;" link="database-1.ckoyf9bwjrbs.us-east-2.rds.amazonaws.com" id="waYZyIHNhnLpzjeqy3rW-35">
          <mxCell style="text;whiteSpace=wrap;html=1;" vertex="1" parent="OqICIpuKd2iwtkI5fxDL-1">
            <mxGeometry x="358" y="800" width="330" height="30" as="geometry" />
          </mxCell>
        </UserObject>
        <mxCell id="waYZyIHNhnLpzjeqy3rW-36" value="" style="rounded=1;whiteSpace=wrap;html=1;gradientColor=#ffa500;fillColor=#ffcd28;strokeColor=#d79b00;" vertex="1" parent="OqICIpuKd2iwtkI5fxDL-1">
          <mxGeometry x="390" y="176" width="220" height="60" as="geometry" />
        </mxCell>
        <mxCell id="waYZyIHNhnLpzjeqy3rW-37" value="" style="shape=image;html=1;verticalAlign=top;verticalLabelPosition=bottom;labelBackgroundColor=#ffffff;imageAspect=0;aspect=fixed;image=https://cdn4.iconfinder.com/data/icons/logos-brands-5/24/cloudflare-128.png" vertex="1" parent="OqICIpuKd2iwtkI5fxDL-1">
          <mxGeometry x="400" y="172" width="68" height="68" as="geometry" />
        </mxCell>
        <mxCell id="waYZyIHNhnLpzjeqy3rW-38" value="&lt;font&gt;&lt;span style=&quot;font-size: 24px&quot;&gt;Cloudflare&lt;/span&gt;&lt;br&gt;&lt;font style=&quot;font-size: 12px&quot;&gt;DNS Only&lt;/font&gt;&lt;br&gt;&lt;/font&gt;" style="text;html=1;strokeColor=none;fillColor=none;align=center;verticalAlign=middle;whiteSpace=wrap;rounded=0;" vertex="1" parent="OqICIpuKd2iwtkI5fxDL-1">
          <mxGeometry x="460" y="181" width="150" height="50" as="geometry" />
        </mxCell>
        <mxCell id="waYZyIHNhnLpzjeqy3rW-39" value="" style="html=1;shadow=0;dashed=0;align=center;verticalAlign=middle;shape=mxgraph.arrows2.twoWayArrow;dy=0.65;dx=22;rotation=90;fillColor=#330033;" vertex="1" parent="OqICIpuKd2iwtkI5fxDL-1">
          <mxGeometry x="445.62" y="110" width="88.75" height="30" as="geometry" />
        </mxCell>
        <mxCell id="waYZyIHNhnLpzjeqy3rW-40" value="&lt;b&gt;HTTP/HTTPS&lt;/b&gt;" style="text;html=1;align=center;verticalAlign=middle;resizable=0;points=[];autosize=1;strokeColor=none;" vertex="1" parent="OqICIpuKd2iwtkI5fxDL-1">
          <mxGeometry x="510" y="120" width="90" height="20" as="geometry" />
        </mxCell>
        <mxCell id="waYZyIHNhnLpzjeqy3rW-41" value="" style="shape=image;html=1;verticalAlign=top;verticalLabelPosition=bottom;labelBackgroundColor=#ffffff;imageAspect=0;aspect=fixed;image=https://cdn4.iconfinder.com/data/icons/logos-3/256/laravel-128.png" vertex="1" parent="OqICIpuKd2iwtkI5fxDL-1">
          <mxGeometry x="820" y="656.98" width="46.95" height="46.95" as="geometry" />
        </mxCell>
        <mxCell id="waYZyIHNhnLpzjeqy3rW-42" value="&lt;div style=&quot;font-size: 23px;&quot;&gt;Amsat&lt;/div&gt;&lt;div style=&quot;font-size: 23px;&quot;&gt;(Customer Portal)&lt;/div&gt;" style="text;html=1;strokeColor=none;fillColor=none;align=center;verticalAlign=middle;whiteSpace=wrap;rounded=0;fontSize=23;" vertex="1" parent="OqICIpuKd2iwtkI5fxDL-1">
          <mxGeometry x="748.47" y="45" width="190" height="115" as="geometry" />
        </mxCell>
        <mxCell id="waYZyIHNhnLpzjeqy3rW-43" value="Process Manager" style="shape=image;verticalLabelPosition=bottom;labelBackgroundColor=none;verticalAlign=top;aspect=fixed;imageAspect=0;image=data:image/png,iVBORw0KGgoAAAANSUhEUgAAAdgAAAB3CAYAAACg5FEWAAAgAElEQVR4nO29+Xdc130nyP9lOhJQGwBSdjKT6XRYbwHjLLJsEZR9kkwmkUjKOekzY5EU5enTYxGU3TnpWLKk9HRrs7O0LFKgLQKK7CSWEosSqdiRLBKoeksVAGLhhpWkABS29z7zw/d+71LYigsESrrvnA9Zhap67757v/f7+W73vm2f29ULCwsLCwsLi9uLbVvdAAsLCwsLi08jLMFaWFhYWFhsAizBWlhYWFhYbAIswVpYWFhYWGwCLMFaWFhYWFhsAizBWlhYWFhYbAK23dN+DhYWFhYWFha3F5ZgLSwsLCwsNgHb7mnvg4WFhYWFhcXthSVYCwsLCwuLTYAlWAsLCwsLi02AJVgLCwsLC4tNgCVYCwsLCwuLTYAlWAsLCwsLi03Atu3tfbCwsLCwsLC4vbAEa2FhYWFhsQmwIWILCwsLC4tNgCVYCwsLCwuLTYANEVtYWFhYWGwCLMFaWFhYWFhsAizBWlhYWFhYbAK2bW8vw8LCwsLCwuL2YlubX4KFhYWFhYXF7YUlWAsLCwsLi03AlhLsDr8Xre29aPN7cU97H3Z4Adr8knSv2/wS7nED7PDpO21+CTu8Etp8+tv29j60tpdwj1vCPX4ZO/xe7PDovPf4ZezwSmjxyvic34c2v0Tf9ehaW93xre3UZnUvZWx3KW6/Q/QH9UlJ9kmbuD/63dYLj4XFVuEeNxD6ohf3+CFa20vifSC/s8MjbHfFXPLPoq09BOsSC4vNxpYRbKvXh7ZdZexwQ7T6AVoECRKhEKHy61bvHNraQ5pAuwS5tEdobe9Fazt9p8Uro9UPxPsSCrtoErW292K7S79p9QO07epDqx9ueccT1ERv9QO0tYfUD7uIePmz7e194rsBtvsRWjxLsBafbRR29WL7rnNo9QPs8EqkI7T5tMMjo5R1AuuFNr+X5todcA8Wn35sHcG2nxUk24ft3jm07SoLkonAE6XVDyQptrlnBfH0yt/u8Eq4x4vQ4vdhe3uI7W4f2vxAEhJNPOWt3uOWhKW79R3f2l4yJnqr/2HddwJpQKjvUb9svwM8cAuLrYTprQbanKC/E6mqyFebIOIdbigiYlt/DxaffmxhiDjQwp1Ehn/62DDePzuH2vwy5mrLeP9sDV87PII2n0iFwj3Ku9veHkoSOvifRzBwYR6jlxYxemEBoxeX6P8LCxi9NI+hS7P459Mz+Fy78pa3Eq1enwqFt59Fqx9gezt51ju8AG0ehbK2t5fJO2+n+93hBVZBWFhonugOTxjjHqVYWn0mX/qcP2vzS2jZRfNt69tv8VnAFoaIy+R1tpfRtquMF1+5DKQAUiBFghSJfP/SsSto21UWVipPFrJOaTL14p/f+0j7PQAk4CNBKt9/6Y8rd0QOtm1XGa3eObT6Ie7xiUR3eCW0CE+WDYodXqBC5cKbtR6shUUJ24sltO0q4x43EAaoSp2YUSpKrXD9RtsuO38sPh5sYYiYvLD//Ysl/PPp64IVBSkKopRHCvzz6ev49XvLxm/b/BLa2qnA4e1/naXf83nkORL1PgF2P1yV+dmthSBOL1TFTZ7Kw+b9PqkIlLIQoXPX5pAsPttobS+hbVcZLT7nXmk+FWSuVXivXp8opqS87T3tfSI6tPX3YPHpx5YR7A6/F7/3BzHigRqQpMJrVeSapsr75L9H/XP4wu/HRhXtdreMHV6Ad/71GoAEywBSLCluTpcNot790IAqlNpSCO+7/awg/ECEskT1dHsfWkVomLxdUSXt2/CWhcV2t08WOHGFfWt7rzRGqahJpVN2+FTs2NpesikWi48N27jC7uPGH399COPXlHeZprrLyuRqkiOQ4Mq1Zfyf//d5qEKGs8j7Zbz9rx+pr4kwM5DI8zLpduzrR5u/NfdcjzY/wKHOQRzuHMQPXxvHq6+Po6tnDP/P44M41DmI33qA8kiF9pLIG1N4vNAebHnbLSy2EjJl0t5LhqjQBytSRAlo5qdAXKmhxe/b8rZbfHZw0wS7wwtUCTz/71HRDn2nV363TSzDYYvz/31qGItLiRkG1og0rXuv51MBYHEhxX/+rxekldDqB/jZzz/Svr/2cf++fqN0f9MgPNIWv48I0qNcs/9AiL/5wSVE8Zy6X2lcUJ8sa/cxOb2EU6en8effHZU5W/2+uVI6v6skctPBHWNAWFhsKkTh0nZXGZ1masjUJ1Fl5uOZ+xYWAtuYCG4UbT6Rxvb2Mlo9sgppqQ3lRFu8AK1+iBax/KbQXsI9vxXjb0+MKTIBNB9VkejQxUUMXVzUyDJR8yYlzzYF8FLXOO75rRDb3TLe+vnV9Zm1nmA3GZQPonW7re0ltH8lwonuCczOJyvsgFTeewIkqfqbIN9l8dF8LcGJ7jH4eyK0+iEKu3opV+uFgmgpvFxoL30s92hhsZXgte+FdtIvre29K+3rVNqtiCs1tHp9QjdZWGw+bppgSZn3osUL0OYTabX5JSog8EIR2gwFk5/Fb9xXxbs/n1nTawUoX/rBuVkUd4co7g7xwdkZQM+hQk0WfvPOmev49d8LcernM6uGmbeKYHmXqe1uH752cAhjUwsqx8w3siKMrXLPqWaBGzcPoDaf4G/+52Xhxcai2KNPkGu45UJlYbHp8PqowFHUKVDhX7DKjOeoUIJyZRrG0h0Li03GzRMse0ntJbWLknifE15tmx+gZVeI3/2jCIOj84pIkVDxUaoVJKVA199PYccXyDMrtJfQ9oUQr/79VenJpRopKeJZQvX8AkqVWe38W0+wjH0Hz2NujsxoWbClVTmnWNQarchW3oR8uyjDXVS4lSCqzOCBfTFafVpDW6gfCwuLTy1i5EXaqbVdFJW0h0jrU0zaNIrjOSJXO0csPibckgdbaA/R6p3DDlcjRZ8LcyiE8/Cj53FtJhGh3VSFPjXJX06AP/+rS8IipV2Z7vHVtoF//leXsJzAIGgiI42DNEJaz5H9uAi2zQ+w/9EBzM8vIgWwpN20cmJX0QbaEiUVEl+UofQ0Nc8zOw88fGhQKhleqrDVgmVhsZlo8c+JugZKkbS2UyGgnn8lYzWRRmwcz6mo2h1wDxafftxSDtb4W3uvXNPZ2l5Cq9eHb/3VGJaXl1cQo2KPBFevp/jTbwyJCXIO/+t9EX727gx+9u4M/rcvRrTObVcZX3tMELVGRBxG5Siy4eFuMcEWdvViZHRBXHXJXJ8LTQmgrloaFM5SYXMtJwv9tyJcPLeMr+yNsMMNZZi41bdhYotPObyyrLBnj7TNC0Wkizer0VQNEsTVj+Q+3lvefovPBG6aYAvtgahqFa/9EC3Cq237Qoiu169LwU6QKgrRCGZgZAH3/nEFLR7tZPQ7f1RBZXBefq1/cB6/84cUAm3xyvjiHw/g/PCC/L1BVMKz2ygL+3ER7LMvXJD3m2r/GyFiUJXwu2eu0jKdk+M40T2B989dx8yC5omvCBdDeupHnxykzSmEkuG+3GrBsrDYTJCMhyJaE4pwcYjHjgzhsc5RPHb0PB49OozHjgzhsPjbw4cGREHU1rff4rOBbayQbxwk5HlfKHW3hHx7iJ33B/jF2dlVmI49NrIs3/nFLH7jSxFaXfr9Q4+cx/Xr2nIV8b3p60vY98iQvN6/vy/EmX+bqSPrJYN4GiHYm7/vxjAyuqCFq+o86pQqgp9+YQStboC8R08GavHKKLjUt9vdPnz7yfN4/+ycuRGHdvzjm1eR9/uw3aGCsrwvfu/3bfr9WVhsNWRFsFdGmydI1isj75eFXqHP+Pt5se856xwLi83GBgQr1q96rPjF37wAeb+M7U6AvN+Hgkt5v/v+ZBCjlxY1YuGXegg0wcs/nMCOXREKXi9a/RDfevoylpaV+7msk0kKLC2n+NbTl9Hqxyh4vdixK8DLP5wwiStZNqqLYYSIVCVhx75+eQ8tnlhWJO43J54f29pAx7W6gSCyQBZ6tXhkcDywr6q1ZFn+n8qwboqHD/Rju9snz5X3hWLwFDkWXHp/qHMIUWUGSQosC2Ni5OKCoUTyfiDGg9pPY1ZC3g9QcKnKsuCKcJrWdr7fVjm2ZeQbJOhW8V3uQ/4dKzhuC/dzixeJ3Jnof/8cWrwIHP1YqRz7VHt5aYV2/YKr+r3VD5HzhOfu9Ukjo9Uro8XvQ84N1bgZ9xvINvPnjShgvreCWxLtD+TY5cUTnox2inmi9zm/ltf3+2S/bXT9gtcrf58T95j3A9qtyFf3kPdpjm53y2hx6JokV2Ux/wK0uL3I+wFyYvewFs/sg+0uyWJekxmWTbqXPnHekjK4N4K41wJHX3gOifug89DcYt1D/UL1DRvJD/chk670chtUjNtdaoec425gyLiuC1lvtGjyx3JHn4voEs+/BvULGcwlOSb5XXytgO5bXuec1u/8fyQ2pinL9/q18z6Nqz4PCmKnq0baV3BLyMnzK9nne97uRHIs9Xmn5pzoUzdSOqLBsfkkYW2CFZ2jBEspAb2DWhwS3j/7xgg+mlvNk+Sc6zKWloFvPjlKg9Nexj2/HeBEzzRS6Jsr1O0jLEOrCX74OlUZs+B988lRLC1DW8pTv7TFJOoUCXY/NCAVDd2jPrgmKaw7AViw/NBQrAWv1wgPA2ZhEpCgq2eM+rM9ljs08TlbPTWxaTJFyHmUb/reK1eE9wt89aFIjkHB6xUhezFBfOqjVkGu6hoUHmOy4YnHgq/IogHhcYTScJTxlaubbGrC9hH8QCpJ2ddSIfUZypQVEiuDNr8klScrDiKsSI5lm19C3uFK6lCMc1kSCuftWHnnPF5mpikKqVQbUYDi+5KQAmnIFPxYUzhlOY/UuQNFuG4JrW4k71c3sta7fotXRovbS3UPYkx4nNnIYAOl4J1V8uCVNTkngt3uMEGWZfukgnfFum7RzlavTxsbVvb0m7ZiY4on7wdS7nnusOJmo5HHmMenVcgYf2dd+fEUubEM6DLbSP8WxOMtW7wAuXY2psjIl0Trq8fkFVy6Ps2/QJJLwS1JcqXiz2jj63vCAHKVDm5xySFpcUvIC90lP2NiFYZc3pA73TASMsc60D2r6UEhiw3ogO1un5zfkg/YWWHdpc0jqZM02S14tBkR9U2faLuZ6vqkY02CzWsWl27B8eSkwaaO+O5/v6hV7iay0EAnmamrCf7wkQFRCFXGzt0xPjg3K73NFYSsH9pnv+ybQfH+mB5b54X4w0cGMHXVJNYVoWK5vAXYvX9ACpTu0fHE1L2MjSaA/lr32LpemzTIXuVdyRDo2FeRgq9HB9q80PSM/dDwVFq9c9h/aBD/5TvDdC3e0KNded6mhxeKtbHKamzxyiI/NYrDR4bwjSOjeKxzGIePDOFQ5xC8jrCx+/cDZN0SHj40gMOdgzh8ZASHRb6LMIKvHRyUhMhKrlVTlqTwxb0LY+5rB9W5HjsyiMc6h3HoifP4Rucwvrq3KpWIvE+/D/sO9aPr5Dg+OHsdcXUWUTyHcnUG//TmVTz7/BVxT5rH6fVpEZmyIecFLRqxHpjcladUlkqjxSvjv3xnFK92X0ZQXUBcnUUYf4SgMoN/OXMNf/ODK9h3qN/wMHIeKV8mtA3b4Aq5YIPXLeEbR0dkvvFQ5xAePTpK+cjOUTywLxaKkY1lkr99B8/jb35wBW+fmUTUP4dn/scFzfslmWQPLe8HIq/Zj8NHhvDo0WEc6uQc5zD2H+zHDjdsyANv9UPkHWXgfnVvFY89PiJlkdo+jMOdg3isc1R62q1+KHXRRvKjy+LhzkE8fGgAWbfUoAIno4L7eocbyn5u9cr46kMRvvviJbzafQUffFhDVLmKD3o/wonuMTz73EU8fGhQzUERvmZ5bSiFw+PKYe9dAdR4C53s9cn+ePToKE6cnMIHZ2cQVOYQxzOIKjMIqzV0nbyCo98dhLsnlqSfay9DesG+mvMNk5vPRnQJjx5V48S65ZDQCQ/sI10tZVo4bn96oB8neqbxzulJRPE8nn5htM7L3XpyvB1Y14Nt80KZ0yNBJsuLPdodvxXj5JvTGpPV5RsFycXn5/GFPwrl5O54eBAXLydY4tKnlJbcLK9ynmVBjOzVJljG5SsJOh4elGGOL/xRiPj8/AoyTqH7sPQIvN17q2gVioYHU1e2bZ7ySNdXEOxhBTLcxQJ3rPuKIlVoBCvecxiGQusivOiH0kJmZUbELcKNwqCRnocMJ7KlGqHFi4ywKRlCJWnFt3gBWneWZF+sXM4APHb0fEOCw952WK2tsIX4bEFlXhGBpwwRA1rbWtxeBJV5aolWFEbBjBRdJy/LZRYtXhn7D/YjqMzICIe+xInui5IN87UEP/vXKXh7qP9y8h76pMVOXkkZOa+xHB0reLo/UsK7OiKcODmF2tySEXlZmT2nPr82tYBnnxs1zsme2YZj4Ii+9EUI0g1MOUuBFAvyfddrk6qfnTIePjSAqDKj2bYJkABdPWPQPeAWl1YHsJddm+OxYdlelLIzOb3UsAfb5ghvUBgUVHFP6+ON3kqAqal56S1JL3oD+akTBQBAWK2psGoD4HFo82IpF8++cAnDF+agG9C6ztOvW5tfxpkzkzjUObQiDbMR9JRGqx9iu6PrGTrHA/tivPHWtFxnn+qrFTQ506OCp05fwzc6z5MOdALZp22eiLhInbRRG6n/t7tl6LvOKd1Cx4meS4JDaFnV4SOjJHdifnJ/dXVPGIbdVpDhZmBNguVQiE5APLhZvwRnT4xzpZmVilBXIgB+9h7ttMQhrANHRzE7D+XZJXpJve7NqtCyVFKJerLO7Dxw4OgoKRqvjF//vRA/e++6aoM4h2yXePFhaRb/YXdVy2UE0hIutAfIO31oJISj/77gltDiqBzV8Z4J1QRDV5AJ4e2uSoXOnjQ/ok4Ps+Y8kxwLbijDeNsdItScV5LkXHBVnorayMRLf8t5lCMzQtfGsYTDR4YayqNxODmMZuXdEbOqgY0q1ym3x7/z+1BweXevEgpiaRG3Ne8HiCrX5biZimsJJ7rHpKF3vGfCGFc9Cl//gAcgQZoAtRpw9MkhtLoBsn4vyCAR+cX2c7LvGi2CyWntf+LJUczOJ1KW0zX7WIknt3n0wgL27K0gp3n6jSj/vBch559F1tfH1UzT8OVPnJyiSIZbwjMvXBJtU5LJz2Du6rki5DkEh1hZ4eXcEO+cuSo3z9dTOan4f8++8w3JT94nPZLzz8LdE65igihF/Q9vToq5UZLyv5H81MsiAITRrJwrjfSvzDs7ZezZHyNgYqhr52qvZf+DnIQonsNjncPIeH0NyVfeL2O7d07KA0cduKbiRycnUKvBuD++boLU2B1OjbX63jtnrsLZEyPnEdEqfaRSMw3JX3ufJtCQfc/X7eqeEnqnjK6eMc0wMzuyq+eKUQex1cR4u7BNTzrryIlN5HNeCTk/kp5IwS2j4+EhXB5XeU99CY4ufC+9Mok2Ud2a9yI893cTov8XYCiCOqGURFu3EYMUFizRORLgub+bQF6E6traQ7z0yqQh76n2hs9/8co8du8/L5VHweuV5yCPoLRqn+jI+wEKfqwI0acihBYnxo9OTgDpyicB8fWfef4incMjkmTy4XOpAaL+ZgHlCmPOQ+U4ryrCcq3tJXEfqsBFz6W1iM+kkGtt5L89enQUBSfe8P7pvH2IKzVhieqKZglLSBFXFqRSYOTccNXXjLiyQJtyAKaSSFIiCTfEqTOTEPYW1IROhFxghcWnG1kpgGefu6z6ReTEcl4JBSeuK37aYPzbQ7S4FbzxliZzLHhYQpKYngR7tKqvyONYQor5GvDwgQHkZNhzozZEhpzmnYA7xJA5Htuu1yaR88r4q+cviQjBsuobbceWEyevCsOuhLzTh1Yh46z0nnhqWM4pVcCnvNrv/89LRp3GWiDSoCKXZ567rD1gUhtT4RHtO3heGLCBKGYrNSA/2iMrhWccV2rIN9A2DgVzdGn/oUHM1ZaQov5I6kXN6MvVdM8H52bh7Wng+kI3sO5s8ciRcPbEGB6ZVddiQwJL9F9ad23DCFIjlyDF1NQi9h8aRNaLxTiXxLU2bp/KgwdGX7McAEtIU6DrtUm0eSHe+OmEMbayX9gA7J6QRpJep/FJx5oEywNcf9MHHr+EmZoaKBVmVOO5uJTgG39xQQrHr95bwpvvfrRiMkvh14RTV9T6xhFsmRmKUyitN9/9CL96b0mS5Df+4gIWFlPZNmOLQnGu67PLeOTIJTFJiWhzbihCtI10HodxFJnlXPLUj3VPCgUhd8DQ/kvw0XyKB/ZRPjHfXpUKtdWrEnFqFjl7bHlfLOcRhWV5L0LWoWu3eBFZk9oEobxyqHmQkQwrGhpBCjq19VDnEFoaIBnyniJE8TzqD/Ycw2gW0tr1y8h6oZbvIWWZ9VT/t3hl5RHriiKhf451j+NvXx6XW0UaKQkpkqnW30uGnOi1Ad998RLaitzHWvWrE0rDZN37FxXfp967Lj1Hw1hk42DNbcXqNk1JlzFfW8a+g+cbVnKqWIv6z3hoBBIkWJac+8OeSRw8OkQfaQqOZx83s0soOo6MtHjKwMv5EdqKZYxPL9aJkLheCoxeqKGlgfZz5XuLW8LZs+aTsPSw+sTUkixSy/sBWpxQqypfW37SOsoGgCieR86PGurfVo+iXP4DIcYntSV39Yxal2aR4wkoWdQMnyUs47HO0YbmF8tk1qd57XREuDi6KPuarrtsOCapZvbIP2sGfv2YzS4sY//BCvWx25hzwbLHnKBHQmSUUYzjie4xPPHkqNqnIF0tfJ+g6+QVKhJtD5Ft0Mj9JGAdghWEIxR1qx/gv/3NlLDKE9mf9UplYmoJf/Afz1P4xgnx23+gbR5Rp2wMK6tO4ejCq18srRsdPmdlcB6//QcVtDghCm6IP/iP53FleglqFyXttwJJkuDZv54WOb1ICJjyHtdHpBWk6JO2jEOdg+I26q3eRfmqNreM/Qf7hZByBaUWghHhS92bpRwhTQDdm+XrstCrqt4S8l6/UXWZ9wNjU47luj4mgm1UgMqIRA5URiQkvyUIq7PSU5FemaMpRBGG1L8TVqnwjQiRvawlAAnePzuDVOtDXV7q96A1PWolM6xw5mrL2HdwgCq0hZJmg6kRLyfvB3j2uct1pKb+V2KqjJfVuDZNlzWbIMHI6By8jo2NPB7rVjeS3pvZDu11CnSdHMfE9PxK5SYIgK9/ontCMzDKtBRDXIM9xn94Uyviq5+3KeDs2bj9OZfmqftARZPHeoUC/ONPJ5FrL4sqXjUPGpMfPhHNw6gy0+Dc5vnUhx+/OWnqI7bxhVG1oq+hZAxQqyNYBk6dnm7IgFNRAOr79t0xhi/wJjx6rYsejUpMORefmzZBYsphAszOJ3j4wIAk9UY9SPasV15TvfnJW1OYnKypWhrUfTel+X3spOgXsa5/q4nxdmHtELEWXvzV3w3wDz+7bg6o7ByFsFqD/5WYPCevgj85MICpa2qT+lUH4iYPc4Do/6lri/iTAwPIexUU3BDeV2MElTlTwFJT+ADgJ/8yjc//DudQyTO71Y6dqaW6VEP3FvTJ8eM3p+F1xKK/I2NJFBMj5Z5EHlt4WzL8KytZWSmsr5RbvNWeOKKOQ51DDSmAnDAIOC+12qAGlRmpIDZqFy/34PPJ4LVehAOepKr/UqEwLg4vIKheF9GVlZXoqXYyJsU4nhGFY2YbVFtV23UjJedR1WuttuIy4loqHPf+uavo6p7CidfH8ZOfTmB6arluVzOzWCZBihPdE3R9RxUUyiU0bkUzqsw+XO2m+VqTkwviT2yg1EUAxN+O90zI8LfMVboV5Nqp+rPNKeHBR89rfQogVTnzFJQCKYgiHWUkRnLpBkcMWt1IhZw14tLn5/5HB+T32eNVlf5ry88qg4+gMiNSLhsTSMEtwd0Tyt+zzCjvkDA8UsPxngmc6CaU4hpU+F2rJ0mBmfkl+Hs4LbT+9ZWxT/f24YfXVSqmziHRvVSkwPCFeZSqczKUzHpIGoNGYRsZVyOjc7JdqpBqfTSiT+bm6obB0BNM/glOnLyqORu3rn/vFKzjwZLC9r4aoVxZkIKlW9t6Z/307ev4td+NRSgpwLefuYBkeXFlx+oDfQuHYe1qkzJZXsS3n7mAnMil/trvxvinn31UN8o0sMsi9LgMoBTPw/tqtGLy3iy6uqf05mnkahIGkGBuLsWP35rAnr0qLF8Q4eqCE1MozKdcOFvqXEFZcEvC2+XQa2RMTJ3Y7gSCXa09qytIMz2g/qbkZ74GPP3cBbhfER6WRxGF/QfOI67OwtzjOVk1XHvoiVEtLEZkwGSmr+/Nt8fCY6KikHJ1DkpBiLZppx8eXcC+gwNodStSqfM5jr0+pu5DMzrTdFlGFPbsjQTJqRSAXvCyIcFKJWzmvIAES1DFgimINHh+d3VPyPWmVOWrpSiEAtzuBJiaWgTn2ZCaMv3B2eti/vXKyE7BFUQtowRl5NwYp967Ktume2EpEoyMLmC7Q0Znzg21moWoAfmp74sbI9gWr4ynXrhs/F5/OVdbxsHOUeS8XuT8SHrRLV4ZTkeEZ56/iIkpVROwDOBEz6Toi3DD68vlNH4FTzw5qkLCxo0pj3qutoSu7qtwHhDrv8U6150PxOjqnsBcTaVLluU80o2kZRx//cqGxnDDBKvpebrOovTk6+czAPzopKoibjRM/UnAtvoiAd1S/P0/G8TUpJZnlf3Cey0R4T73d1fE+qkIO74QouvvpwyLyrS4knopubljtXNq13z19Unc89uRDG//j78dk0UxVJEsVIqmfCYnFvH7fzYo8z23AueBELMLZqGTvJa01vVCE/ro/bMzeOLJ0TpSKkuPgoUvq4WEc+IJOmYIbY1xbZBgN8LmEyyNSb1xwsfI6ALcPbEIHYbSI+INIFqcEN/7wWWDaPQ+57+VK/NG1aRUbJ5aB5r3qeKVieJQ55CKitSdDykwPLpEis5TofFCu8qVtrqBrOTV79NA2EkAACAASURBVJUUMf3/xlvTojpYeX9tXixy7fXpgdUJNoVJsIZhm5Lyn6mlePe9j/DqyXE8+vh5PLBvQBb9SUXniDa4vJ4zoNApn6q+diJNpRekwo5i4wdhIHJeda62LOcDK2Bu7/dfuYKsMDZ5K1Bzo5KbJ9iN5LvFK1MoXExa3ThLQdWxeVHXoO80xeuZaZ1vCc8+fwXztWWMTy+i4PXKgrEN55hXAe+WNz69aMiwHvVYlnNB5MvdWPYJ13Pk/TK+sjeSIWbp0dbViMzNpfA6Qm3M1uufjfWJkc5L1WxGkmJ8ehGnTk/j1ZPTOHxkiKro2/U0zacDaxJszith8lp9OMJcp7YwDzzyrQvgEvqdu0O831uj76dinavmMfI5bt+hEz+1la5Jwvhv5+awc3eIrEtLYL7+xCgWdBkTFrMsUFhOMHkV6xJUo2jxAjz2+IiyFo11JGrC0p+XtIlD35+eXkJXzxUiEW3ysmJlDz3vVWhCOH0otAfIevryitXbtt6xmQSr981qk0hXkDIiUf8qBcamFuA8EGpVpEppZoXVn/FDZNsDnOghIliuGwNdrB/YVxWKMVQFZiIHToqOlzhRpffbpz+qC7ml8v1cbQkP7KNITsEtC0IJ5WsZfnPK+OBcTd6b7k4w8VERVl17fFWIUj/G+sHyJAu7tCVuSBPUZoGnXrokl05lxTVIfthoUdelSEkFWVF0s//QkFGFboabE3Q+OSTbmuUoiyAYJrkj3x1eKTvaNNmzvwouruJlaHqV9Xrys0pn3BDBFtwySlWKb65Ymwvg4FGqVcj6tJ5XyqKIJtEcpfSNuyeWtQ20tKUR/VJGxg3w3RevSMdgtQjMxNQSnD1VuUENz80s97Nfkca4uyfE2JSqYVC2p5CWFDjWPdmQ/tuYYFVuWIp2Su19+oVRzVNVaa2sp3TcVhPj7cLaBOsH+PkvZyEoCJzvWhZ9d2Uiwf1/SruVZL0QHQ8PYuTykhF+MKUyMTy2Wz0kV8mKUvUBf7aMBCOXl7B7/3lkPfIA7//TQVpiJKw/+WxZ0Puf/3JW8w5vHjzJnn7+sizxV0s0lmTbqWc1S1InX3Efp967jgf2VWUuSm7JJvI05F1FYulOZBAOTzj99XrHjRBsztuYYHVreDXFZvytPkRcZwHzcotHjw4b61hZmWU9fScuLqQpk+W+jtC9dGycyMXlallScLyHccGPadchrx/eAxXUh3a5vezZMImY97fy/Z69FdDmAEIJGU+ESnCoc0R8v09WkqplW2sQrO6tJrocKW924MI8vA4yUGgce9HqViC35vQDaRhldcNDhGnzHhUTjk0tmP2aqp44dfojWQ3KfSvHSxD6P/yTWrphGpnklXHOOetxbi5A1mlUfla2K6jMGBX66xNIhHK/Fr7mU4m5+cyLF5B1aP9vNiB43bparytqWbjq31Njt7H+4HW9M8qQM5wdAEmKw0eGJDHl/AB52T8izM9zw6e1+t84Mmrek7RfSQanphaNnPfa/VMndyuO+tUhlDrwOqhGJ+eGyPmR+F/fzzlqaHw+KViTYAtuiN+4v4LRi0vcX3KMe8M5uB1VWWBz4MgI5mrLeoRWl2tFHJpg3PKhK486618Or7jm3FyKRx6n7QWzXghnTxXnglmjfWmaYuTCIv79l+NVva4bRdZXGz/sPziAiakls2O4vXWhJ3qn1ghLAyJJcaJnUlRoRmjepda2kodTAYeLOYyoQ1dI6x2bQbB8/fUIlr00XUFyX+ihrDOnr0IukXLVvTKpspeTF+TY6sfofHJEjbPsV5afJfzy3DV5Dt3DyWleHCuBo98ZgUwzGEskiNQ69kWyDRn+rXaPOT+SSrbglvHBh3Nm+ExUTANqbSD3jcz1aeOr96E+DuaaSHHeFDh/YR67OirIekSaBZ+WiXGVbl7ke6WB0G5eJ+v2yTXb33/lCkVg6paoAMDswqIkZdrEJZTGT84nMpycWFRRJG6zUCDf+8Flul+x9WRWPMiiXgGvJz91gnRDBJvzyjgrngpmijaN/VxtGQ8fVHOFjF4tesTzUcgQX7PFC4zK77XQ6ofwOmJqvqYvEiiH4p13r2nh4FAa12woSl2kRb7yXoS3z3BldCLOqRwopKClYjeg61Y7TIMkwYXROSFzJfA6fhkdEWtw+V5uh4Nzp2BbvSLWBTDrl/Clh/pxfVYVH7zx5jV87gt8gjL+v78b04wqNUipThKaQtuUEHHd2ireMkwXxjQB/tvfXqHdmvwyPveFAH//06tiVie4PruML+8dkArlVsFhN15y434lwqtiC0Ud3Elm6bwWzoP55fGpGh7rHJaCqMKFJUkCyjNZOaaNEmyj97kRwda3ZS2iZmVsEqy5OB5JiqNPXUTWo77NCqs965egF9S01N1vzg0xNbmknVPlTVPQDk9czMOhPumxCaLNeWUUnBj/+KbyaqTyFeMzPDIrPWn2BvVQLrWNiJLIUuSJNVnWX4fxR6KiPULO65Ubzuv9thbB1p+LP9p/sCIMEJoHetiZn9ZSb2TQ65Wh6gf2njf6Ub9mmqbYd6hfbNYQGZ5nzitj74FBw2NVr2mc9uyvyjFo8fukh1hwwxVRkbXkx7hxmAS7EfJ+gFe7r8ifp2m6wpCYryV46Qdj0tHgvlKkx6kcVRtBIfiVBvBqeOqFi3VjqHn5KfCtpy6Q0eMEyIpahIJb1ox7NX5k2JFcPnxoUJ5vZSTGNOzW65/1CLZeJvbsH6ibByoNITc28dlz77stOvhOwJoESyRBVsYff30IfdEC/vy/X0FeVDbm3BD3Pdiv4vdYNkdphRvLr83azps9ZLl8A9fUc2X3PdivEuntIf7r8xPoDefwJ48MGwn2W+3Yghtqa/eU19KxL8K7p6/DPJI1/gd4UhlbjCVqN6hse4BCUe1ss177WYDXO+4kgiXDY1kuzZmppVJ5qKrNQPO6SqLauiK8CdXvb5+5ZpBh/XIH3XrmEF/BLSPbHkAP+QUVqh5ONCMSYnxOnJxS9yvGn7cxzHllZD212TqHeg93DhpGqN6NtfkEWU+kAlzK6zK5rDa2a40D3/ep09dMctYq1uXf/UAjAOWVKc+5JI3vvB/gwsi8cVl9Xv74zWl5nvwu8lyzHq2PP9E9oeZlXQj0g7OrEKEgVn0sNpNgc14Z+w+chzkXNbmU7U4wObmAp5+/SO0T455rp3W6PDbK8O1d0wCu170/fnNazQGjAQnmayBZbecd4CJFTjLsKsa5/ZxKLYiagrGpBYOsdUO2kX7K+4E01FY9VLgSb5+ZlHM145dkikCfb3mvIu+jkf75pGBbjuPhN4H7HhpYvXMbPJTQJKbQSo9NzxPUVTLf5HHfQwM3fb+3E3v2VtDVPYXafGJszqD3g+wG7f5V3yV49rmLyLkxMm4JeUdYq25MQrvOtdcbj8NHRhq+h6wXIorn1jxfUJlb8f3VzqG/JwLTGqS9pPPFyMp73aB9bglZhzzK7z7HVbsrPUUgweEjI8g6NLmzIq/G/akr8Nqc8mLMMBjw7b+8IAlrw/Z5ZeSLVFS0UqZVuziX3+zSdzNupLXNxHpzIwVwqHMEGVd557cCDjF/7+UxQ071TRAmppbEeEVinGP525HRBekR1rf7mecv3lg71pKfuiOK51aVwfUQVK8bY71ct7mEbvxOTC3hxVfG4O6JpSxlXCVTObeKrBdLB2U95OVSML1fVTuCyryc5wVH9StdJ97w/KdOT2vnM3XL8OjCDfXRRseDB4fMMRN981nAlhGsER6S+TAKEamI6JISLM3CuhWSvVMItuCW0eQNoOCW8fRLl/HhhzPCt1c5OCbcZUBOZNkPIox86MgommVBjzj/HUKwUXzjBGucr86weu3kFVIgN0AQTMbf6Bw2qzA1CzsF8Ojjw6hXTFJZietlnQCGMhLeBZ9u+MI8gspcQ4hiQtBf0+5TGVjcvAcPDiHvkOeXK5alMt1oXOX8SkhuFuZT5J1A/H5jBbwRyNOI0bGvArXGsb5/l2i3LDdG3hGRB6eKjn398l7Ng4qdnI7GFfC68rOKPN4IwWbdEjr2nkdtXkXA2JCQOXNNjvj1fG0ZXd0TcDoiEbYVKQ1haDRigGUdfnBBnawKo+S1k2PGvWTdErJe3PDcONFzbUXEhK+VYPmGZGHVQ8jDxPQ82oqhcACEsbWGgfhpxNYSrBFq0T9Y5bXmzX4aCDbriMnnkAdacEPseWgQJ3quycdPyfxIaq4VlOH4lJ7EknX71ORdQ4Ey0RTWmhC4AwlWb1sKnOi5hkY9WOqHKoWM3RCPPi6WhEgSUzKXYJk8WI+9XnV+RejUr7wTkoosqL7Tl6U1cqQwC9+MuSCI+/Dj58XyGFpXmTe8axOqYbwFpjLUwmgWTb7I0TUYAVi3fw0ZmAft5qQv46Nr//XLY1K+s8JQeOkHY2tEr0Dh4RswADaLYAsOeZpZr4x9jwxivqbC2NqQqS0TUzaO1TE7D3z/B9NShjJu0HDf572I0hDCaEkSLR2Rpuh67SqlHZyAwqtCpzR6/meev2hacprxniK5ob5f/aD+ev/sDDJuJOU2K+fS1uvgjwNbGCJekgVGNB7r0Kb8jJcerNzIu9HjjiFYIZwqxxXKsOHOB6ro6p4Q4UjzUM9K4NzJMp747iUKRXlrK89PHsGuJKljPZdFnmvjCcphuIzYS/vRo8NmkYo8yHA73DmIZn5EmxgLdb5Y/l9/6BUFqXjf2E5liVHpy/aUIkZq16FvDlPhlPAAOOS4GmQj6u4tTVP85K2r0njYKIXQOGJk5KYZqohMXRkYGq0h71WQKdL2qRmf9q9momJjkeR5Gc+8cKWh8d1YflYeN0KwKtxK7/ce6MfwhTmYe2HrRow2N6WcJUiSBMMX5tHx4IA0qhtpA0VL9PPp/y/jeM8YssJwybi6QVhpqP8OHhkw5MXYdCJJb6jvVzvYKTj+2oQKZbshMiJtc3vk787HlnuwSFKj6CmtAx+0/jb91HiwPImyXoisXxGKsyoFl5cTBZU5bYME5cUvQRU+vPPuNWHJRmsK7yePYLlNygs73jOBrNuHhgnWKyPjRig4MQ4eWY1gVYHH4SOjyLpV4eFpeTMR2mPCrV/rL+U4TVYX3A2O+u0c1Unp9aNHR0Vel8LDei6zHuq36n9+29U9cdvCwzk3lF501gng3l+RFzNXC9A97N5blWPidEQyfGz0g/iZ21G9sXZsFsEaucyqkIkY3//BpNx9SqW4yDBa1qqgjf2mkxSz8wn2PzIoPP/GxsCQiTqp6eqeknLJUZosbwbSQAj28JHRFQ9OkUeKG+r71Q4+LRX+UdRJpjpum4F352NLi5yQkl76T39xGV//5hAeeXwUB45cwCOdhANHLuCRx0fx9W8O4T/9xWXaoOlW2BV3DsEWXJWXMATOKyHnxjJvk3EDeiSaPJbk5E3F3Ju4uowWh701lS80JoOjwlPrDMdtL3LS28EhMh2m9R2sKFJJNSV2ontMGiUbt4/IhDyRCIePjIjzKALQDZcDncN1IbzY6EcmW/4dEavYwk4ns8QMP697yI1GTOJPtRcHHlcFInmntG6Uwvwxe8R0vNp9BVm/JEPNtyq/nEvj8Xv/Q37knPKE2Ph45rnLMpLwzAu09EU9zEEtf3n39PXGC9galB/9uFEPtsURpOWrvZSzTgS3o4oT3WMilaOF9iXp6mHvJbl/e20+wZf2K9naCONTs2vey49OjkkZ1/uAdMjGBHbs9QnoBiY/NpTRaB+tpU/4PD86OUZVwk5A63RvQ3rik4Rt9QqvUeTcWyVYla+5594YWS9GxqFQEldtZoohMk4FWS/GPffGItxVt3PTDR5MsDd737cLGTdCxg0E+HVJeK+x/E7ODfGb90eYnzMVL//PoTidGDgXIz3kOmW01qETbCPjv7kEq1dX08H5udXOs/p5Bck6Ab79nYurrsVmEvi/OoeQcUvIOQOi/yLzXkUOyUzAqf5PAbxz5jpOnJzC8Z4JdHWvj2Pd4zjRM41j3ePo6p7AD1+7gq6eMbx6chJd3VM41j2O4z0T2LN/gOaBp4wFWZnqmR6cMZbiXnnZzKsnx2l++WTY3ar8Mkmw3D79/GXVNXU7kX1w9qockw8/nAPtZL7yMWqdfzlKS5tuaB7dHME2cl6u8s6Kfsu4yrjLimjTUy9cxIWReZGDX0m4vBaf7jNBXKmRTmvg3oLKvJRV+r16EtIHZ6+L+S1qDfQKeKE/1kNX91VxXhVp4DDx3Fza8PxfT58AwKuvjSl95vSL323cvk8Ltoxg5QbhKfD5L7I1HBmKkckn65bw+S9GMlez9kOsNz7uFILNOkysZmGCrtgznij398o4dfraGtEc6sOMU5EeBROQInD1Puusszk3bj/BsgKkJSZmu2SbPEXAKz1YgL2C8akEGaevoQlK549kYcWxnilxRj1npp6D2r67imZPyJvH+dtIjgm398LonDT05HiIWoLjPRPyuxsh68UygpERsp91S8i6VWS8PtXHTiC9Vl5iw8SqI+euskxHsFeKBF0nryHvlMQ93rrsNnsl6ZVm3ADu7qjOc0+06wPOnioyXoz5Wf2Ra2psZ2qU92vWlrVsPL4by49+3AjBcr/SdWhryKxIOfBneackax8OHhlGXJ1dkQM31usLb/FQ51BDffz+2RmY3rBaQUFLoEROk3PrQp4amR/UT+ppP0pkyAhodP6vS7BJiuM9Y2j2AtUmv/QZI9hVJmsjyLjBrYeIxfFr91YMpatbpPz3X7u3cluudd9DA3JS3gqkR+aWkHEqmiKmEG/Gi5EvRmjWvFMOB2fkmkYSPCJaniQRWEnnnYAUoh/iWPcVIDV3xwLUA52ZEDJuJKofyVPh88h7doK6/Jy57OnpF0bB1rD0dKRXbYYFc155xRM65Kb6UARbT/BrKUpDQap4q9bOBHseGpTf5TZKEhdt4zZn3AC5nTReAxdmzY5LTYI1FKtTkcUYrFS5f395blY1TzvfMoD3z11Hxi8Lr4KjCWqMZZtYtn3lDRU0Ms04tFGGvB/5u6roq0j2mU4W65mdXd0TZp/fovxLWWXvxBfbPhrL7BThfvvJUTzxpNoHV27PJ8bg1OlrdJ9en4haNXL9deRnlSOK5wz52Ei/ZZ0AGYdy/uwA6P2d8WI0uxXxug/5YgUHj5xXD0aXsqY/cQl4/a1rG1/fi/HD18aFnJqeJs+LfY8MouDERGBiFQGRfqD0jJDhrBciX6T2FzsqWnqE5TeRdQRvvDXdUP+zHK53sNytmPu3Kn+fEFiCven7Lykh82JFkJKI+vC9l8cwNFpDsSOS5MSKSXoScglDJJRzKEi2IgUxX4zwxpvXtLuo23QiTTVrtirJgYpiYkXkxVjkEcU5UvV7Po51j9N3ZUhS6ytWqJ4wMJyKwVmARjxYm2DX+5upIEXoSrvd1386Lqpq9bbEyDi9ou8r0L3IFifEl/cOaIpKOy/ob2Sx0xaCGVEgwuOpPEx6/dIPLq+8X60vnY5Iuz61sdkh0uXNInJuKEO1Gc2a5w0l9NRBwYnVGAgjzVBwGtlsRLD1Xt+tQLaD5dctofM7l2Sn6A8u4PD5qfeump4rfyi2wOQK2xsiwE0mWK7c5vQNGzUFt6zGWMhisyhULO4OMTQ6C/Zg6z179qTXv36EA0dH1drbVaqV/+XMNY3oIjQ7ZcPQzoi5n/HLosCIIiHPvDAuz6Onnfj1E0+d31gGLME2hJsOEX/iCfYWXX9DuWm7/rAiPtA5LMgmwewsPRmFcjkqx6R2tiHyKzgxsm6f8FrLUoAzfhlTU4tqotaFoSamFlV40Q2QdavmJGiPkPHosWSZolkMk8jsEZ17cHSewmEO54RjSIPCI8Jmz/bp5/XnrWq+cLKaBxutUIZq4ilSWREi1pY8APSQ9Y4HB6hNTp/oJ10RBrKqkg2Ld86oPae5vfqqsK6TV2AYIm6JCJfzRULhFdwQu/fGJsGmy0r3pUBXDxdixWh2+qQRpY93xo1Efo923eL2Zz0tRCrGkrwO0SaOjrimDPL7GyLYW5b/Enlw7D0JkqGHfizJ/mAOnZtdUg/9lv/Qw99n52ndZaZYVpGDBvRPI/KjHwbBNjK/NfLK+YGRQlBLT8qGDmAD+kDnsGlMJGq/9Die2/D6ORGCn53X70BVKXO+tGPvII2BePBHs5BT7pt8MTLkK+tEmJ5cNMaAXtLcqM0ncHb331AfrXcogtVSX7dB/j4p2NZIvmgt3PfQ+XU7t9HDJFiV49Anzu0j2PM3fb86WFA4b0STgpTll/YOYm4O0jonTynFD380jWJHRVqSGZEfZPKiXEUoySIvJutL//OK8ArUfs96HvDfzk7LXFhWemBqezomW17moS8MWdZIh4+DR4bBnrgqZBETRFsWQOsCAd59ql7BE8Eqb24tgtW/oxc58cGWdioW8//buRnkHUX+elg9K0KsXJgi1/tB7z8t1IYEew/0yzB/s9cHPXqg2klj1eLEGB6pQT4OLgWoGlh5xfsPDIvQYqhNNmpfs6d7QrEMce/9+gBO9Ewi60TIFysyvyfH0AnA3rAxJrKNUYME21iOeCPknQBNbq9sS84N0eyU8c4ZfWvBVXKy4rWMnqbAO2dmoPKbccNtWF9+Vh5MsGaB4Rrw+pBxI+w9MISR0Tl0PDhAc9Ij2brbC5B1q5oBpOXMxfzV0xz666gy08C9EZG/8dMJSYbyNNx5CRBWZ6UBxrlOM/JB0RMq0opwvGdMRm5kqN6INFylYriG+r4Rgp2qM1g+W9gmwwk3gdtPsHroLwZXTGbc202wN3/PqjApoocZOybJFjsiWVXIYbJEbCUH0PMWn37+sryvLFcASk9GGRZZt4qnXri8Sk7LzMU8/dw4cm6MZrFpNit0nuxZJxDr46iAhjZE16p09VBxCgyOLuI3O/rFJNXayblEJ8I7Z66a1aJy0qeyfSsJNtLG1Hy9QkFymBG86YK529c7Z64iX6QK84Lsf1VhWyhG2H/gPGpz/BjFVCo5vb1Tk0vKIBFeGa95ZM8161SQcwbQ5JDh99QLF42QGp+Ox4gegj2ArFPRwsLCw3Yqskq+WUQtHn18GHOLpOyeeeES7vZLwggzDc+Mp4Xneb5oY9I4wd4eUG6yClaezV6Ao0+O18mo1keGx6Q6be8jVWlYZ8RGCY3OwTXlZ5XDJNj1QbIVYniUojtzcym+98o4GbJ+KHUUjylHPphkDz4+gnqjk8msXJlvrG+dCjr2Dooc7splQNSnKU69R2tim72ADE+e/765w9Ozz3F6Y0mrQUjAz4IFQDUOfthQHzVKsPVG0GcJdxDBaoOmC6/AnUawGS+m5RNuRIUObhUZp4J/eW8aSZIYyny1HYTGJxfw4zev4WDnKPLFCE1OKPNxOTfGt74zQptMGGvVlNdKxxLmastwOyicSJZnhIynimFYqJudstizOMY//PTaCnYwd4tJMHKxhgNH6KHS2WK/CHdG2LO3H++fpXYto/7eaPKzh6wItnHUK8hEMVddUQblTnc/NCAtbgpXVpDxYrz4ymV8NMfPkuX2mRu1A8CLr4yRQpFLCVRouNnRvapIhHApxzsxtaS8WAApFg3SmKst49CRi6T43H7hHZeQ8cjrafYCOHsG6IkpdTe87+B5uo5RHEVjSe1SCvDGCPb2KY5mT5M3XsIiyLY2X7fNJ7TXethUGCMZkb8kGe6X8+pmsDHBNnaenBvjWPckgEUh4yQ7peocbavplmhJofBem71AGnm/2TGIkVEV2yWR4KUwKU40MBYsa81eoHLX2lxYrjM4g8oc9uztF3NfjJHbj6xbgrO7H2/803Xq83q7R9NTb5/+yHioRCO4MYL97OE2EuzNr03dfIJVbbtdBMvhmGbxAOkmJ8S3/3JkRRhMX+/HlqgeHtMrZaN4DrPzZuGB7slJMtMmxbHucaPfKLwVo8khr67ZU4qPFcfjT11Q59cmvnFdcYyMLuAXZz/C22emEcXz+hw3Ql9snes/vxWCTTWrXZGkviZwSX5+/sI8TnRP4NWTkzj13nVMTSbgyk2jvVC5JgC4PLWMYkfFGE8ixAjNToic1w8V7omQcfqR9WI0+SEOdY7INukhPNWX1L6R0QV87+UxHDxyHoeOjOLwN4fx1PNjOHWaitbkMg7NSJmppdh3UNQKiLFj5d3sUuTEHHN6vT7BTinZvS3KQ3nDzcWq9KqbvQD/ckY34FZWv2qDgTfempaGH1e53kq7bhfBfnnvAGq1unHVzjU+vYgfv3kNB46M4Df30Nh8eW8Vzz5/BROiXoIjGglSrWp3CYeOXGxIv2TE2O7cHWK+hlXnpzxEF/+89zpOdE/giScv4vuvXMHP3ruu7Tyl5oz+I36A/M49A7hRMsw66+f+j/dM3dD5Pm24Iwj281/cmGA//8U7i2BleEp4smzBPv38ZS3HqVuZGtEaxQpiFxWDPFH3XfFf3WS/MDKP4v1VqTCbtbZlPcqJZd0BzSMIZFHKxJTYhWiVPJkKoSaGB0KHetoPKxHeT7Z+RyKDYJ3K2v2pfaYIVsacZXtqc8swnztMYW5SYDCUmn4P3GGGIkiBJ54clWHcnB5mFrLX7ITSI+Cq74zLhSMRfvLW9RXKhY0BfeN09R2toGRFm1RhEMCPDIuNsc06AZr82AiNNkqwuqK7HQRLfUKFOM1upIw4p4JDR0brHjZg3Jp2JHjw4BDdj4g8ZNwId3s32J5V5Ge140YINqp7rmy97Oj3sGrHp/rLRM6PialEFks1gnyR+uOJJy+CN63QDWwAWALN5TRN5bI9pTtW1kasdi9HvzOije06c1UDRx0akrsGz/lpw00TbNYJ8MW9RLCmMlwlDLHKoTyeJXz+ixWoJRYi3OJxcQh9RgS7pCnyDS+gFJnWoC/uPX9LISh5/16IZrefilZEiPJur4J8McLBI8MYm1ShSSZRI9wpw5Xa+M71uAAAD4pJREFUhOEQmnxvKmldUddqwN4D/SpkKNqgikTWb/8zz1+Uk5GWEiyuJPX1OxfnL8xjZHRekXDdAxuYYHmXLlmpu0oekImCH2gubtx4uMEbP52S+W1ofZJqfca/M9oKFZ7kj94+M62qrp2KNDwaVQYcTj713nVghRHC101EVy3JsdeXr+hjzO3kM23Uvqxbwt1eRZJw1onk+XVDg8/56slJWex2ezzY9TE+aVa9K4NHtWtiaonaohkJjbZNFbXpsrWSYPX1o0FlTspgk6Pyp/T7MjIO1R186eF+1OaXpVHLTV+5wY1pnBrhcO2FGnvgUOcQmt1GyCYQhh9Fo3JuuOKZxiuMyLq/ychKmq7ofzWHEjzzwhUq3GoPG5b/TDGWVeR8boPchcF7vPuafC6zlF3nsxMyvmmCbXb7seuPBiAJItUJrcFDDPiv3VsxlAV7Cixgd3sVFSJugFvN02tKNwW+8H8MNCjgG09wJn8uKmh2yRvKFyMUOypmfo0n6qq7UCXaK+1pLKn+fVWpOzeXYu+BfrR4AZocWpLDIeFMcaX3vxqanBC/PFszwtS6MjAfLK02D2CCmK8l2PfIEMr9C2LsFw3vGqnyGDinQ6HXMnJayLoeOsFKQ0oop+M9E/jy3iotXVihWDjfrRqRavfF3i6Q4Genr6LZjXC3V1EVyDLf2ViBDctms9OHd85cF95DnaKrW8PIyj6RsrBcZzjR6x++Nr5h+9jzzriR9IhSLJgypRFuV/cEmp3QSBdsJn7y1nVjjGSNmUZ4P37zmtyMhYuEGp2bObdKdQU8H4WMRfGc0aEyNJukonp3ZaVy1q3KArasU0Heofz4z3vrK6JVTcXKyE79sSRlmJvzxk8nTENpXWgV396A1I+KZHVB09qnLW7Vt/FkQVvWf5PQPtEkX1V1vYbCxNx3A1o7uI/4MYxLON4zQfNe7/fPkDd78x6sqJi7NLYgxkrlvBo9WHA/dy9Zoc1iw/pMMRReZiC9s8/dG2si09ihC3eKBJfGFuiJM3JbxlsDt63ZKUtvu9mt4C43RnORjIWHHjmPsFoz2p2AFavYW9TwXOusfSGo/PYXvTXs3E1KsskRk6IYSqHNOhGa3PLG7S+W8R92VzE4qnZiWlEVnKQwdnkQk2emlmLfI0PIejH64pkV5MztpWpJGsOs6Ceudl6rXfUbTbCMLAPoem0SzW6Er/zJAIYvKE/W6KuUVJvuQejex9tnrklFkttJ/dbklskid82+XFf+nQpyO3kf2IpcSoXEVLy6Ml4RodCbnQITU4s4fGQUzcV4w/YRsZRIBotUkUy8pQq69KKiru4poegqRpHUZmHvgSHxlBm+U/PpOXJXrmKMJvEEo0wxlP264dwTD8Wguad0R7kyX+etUQQBAOLKAjJuSfYlb0rS7FBBEc+bbLEfzUXKCXd+5xImri5o46Sxkyan0slYw4vtem0SBaeqlpBteH+BkANhQBXLcvwPdY5gcloY3PUPr5AGjDkvDEMuSTE+JR5wUSyLNJdKPTQiH1L3eSVTlhMYkSxapiOq6cV93+1Zgt24g4sx7nJj3L9/CJXqvLDGb8CD1ZTMr/6eKMopUpj4LpfOnXUqaC7SZ7/6e/FKhdrQQUUG1YFZ7P7akCS/W+24ZtEHPDnv2inWthZF9WmRvEoyGGLc/+AAfvzmJGZqqdF8RbYcyuQJYebrzp79CI90DkslICdBMZQKg5Rt2FiORxgAzU4Zr56cBIeL9DGU/S3djyUElXnsfmgATU4VzQ4v+YGmbxKp6MNqDU07IwrHORU5xnd7qu9Ylrhd5laJZlSk6+S4lIedu6srq6G1/DD1pah1TikcyXmmJqeKzM6qHKOcGyNTLOPuIj1sojH5KImoQYXO50a4/6EKTp2ZMxSb3hZ9TKXBn1LF8YnXx7FzdxV3iwrjjdrXXIzRvDOQZNvkaPMDdQoVFCLOiO99HCG6ZiekPH+6aDy1iBt3YWSB7kXIQJMTosktN0z+LENNQtE3OTGadkYIqzUoT4rTCORRRZUZNO8sSQOqqRhIgpXncERVsNRxNKeefv4yRkYXVkYctIjUaiHkKF7AwcdH0OTEwtCMGpKvJl4iV4ylEd/k0NaMmWKMYkc/jnVPYm7B6FZDd3AbUq0vanPLON4zgZ27Y2msNe1UhX2ZndXGDTDxcBY9FcZFe4lox7HuSTQ7IeXVxfc/DgPvTsG2Zodu+EbBk4g6TSjNnRHYA5VKYA3QxOin8xWVB9vkqI0DmvhagmibxW9YUa+HTJGUUlMxICVYDKRlmimWb+qeDWikRt5qRSiIsrAGA3E/VTS5fdLKbnZCPPTIeZzonsAvzn6EuDprhHA4lxNUZnDq9DU8/fwY7ntoQCNUlXOVE84lpdzkaH2wUfs1C7lpJ1VNvvjK2IoQG5BgfHoJb787hQNHLpACKpblGD/54mUc75nA8Z4pvHpyHCe6J9DVPYWu7gk889xl1U/SA4uN8azvS2MdrNYGYAmvnpzEXS7lvpuErNz/YD++9/IEytUZcFiWi60mppbwzpnrePypC2guVpXMupE4T0XKA/VlP5p3lqTcrQfqByokU+8pJ/Wlhwbw1y+P4RdnZzEzv2R2p2jd6HANp967jidfvCyWabGxFgkjc4P2iX5s2hnJMT/eMyWf1vPqyXHtyT2TONQ5Qu1rVD5uEU1OjO+9PIagMoe4UkMY1RDFcwirNQSVGTz9/GWaLy4p3aZivzRUGul/1ju6bDUXYzzz3GVx/5MC0+LpRlfx3ecuCYOIjbtA/k4/L+sP+j9U+syN8KWHKvjeyxP45blZDMl6gCXBMUtYAhBUZvCTf7qK/QfOS30gZe5G+r5YlaTU5JDTobeTIhshnnrhMs6cvo7JCfNh8Ez4PA/osYHCmGF5K1aR8apKjt1yQ21kXZMphjjWPYmu7gmc6JnG8dd4/k/h1ZOTYge7SH5X547PAm6aYJscSnLfLZSDTrisGNaFEyovSiNFJl+pRPTfaASzMYEr0uZ23V2syLbfasdxyFMnPdUPffK1DIs4JTm5M8VQeh3NbkReC5NdMdD6coA2qxd9yr9li1YP+fE9Ux81Nn5ynMRvssLLzBRDNLm07lUfnyZHeRv6cpZ8MZJFVk1OiLs9zkVXcJdTpUnrBaQQnIohA9z2eoLlCDUTbYJldL02bZALRwvI86iK81aFAcBLlSpivEjB8T3K0DoraNmuamMyIH7DhlPWIUOl2QnR7PYjU4xxl9i4vtkJUbw/xkOHhpH9TdFvLi0BYgXMY5cVhtOG7RPelRwfJioxd4h8K9JzUPIZNERgtwppTLEydRVRcGTqbo8iKHKe8nzfWWq4/3XZusupIl8UHr0gClrDLZ6MtDPErzgRMjw/mUzFHKVzl6VRI41iV0XSWOblfHVC7e+aB254xOTN3OVUkdvZYP8VlUfP12c9IPWfU9b6VxSIOeREHDwyrNrk9st+NqJJPI+dsrqHoiLbjfqfxrCirl+MkS9WTAJ3qM85lC/n6ccgg3cCbppgycOMkSuWpYfYLDr2RiYw55HYyuH/9dcyjOM2MPEEpCWmkV9+Z1kQyG0aYJfzr5oVXKyK8GkISYJCIJvE5+xBS8WieWTyb14gFSJPCFYIksilhasMkLuLgWFYbNj/PNncfmk08LWk8VBnCFGeOVSeuxPKe+PwNPcz52ClNyZC5vUEy6+N58HW7Wl7vGdC+25Z9oVOmE1OiLvcGLmdVdkPWdFH7H3f5YaGsqQ29pEHpYWx1kUxljLf7IQyUsIKUHpjbtkw9lR/k9FFhFelNgnjin6zfvuyDoVJ6dz9QtYqJEs7IzIynH5xr1XDiPk4CFYRUkV54OKemoqBlB8mWyZ+GZ3aSG5ZtoQMcj+xYSXrIOr6XM5HMWYyXLyTyEk3CFjum9w+gzA5N856RRK6W6E5UIwlOdI8KEuP726v0tD9saxKkvaqJC9sWIi/0/31G4Y5pwA4hdDkhEImQmN+k65io0dFHhvxMDNiIxapv1yVI75L27VMjk+dkb7p8neH4KYJloVghSBoVvdGHqxUuhzu9AIj/NvkhIpo9MHSvrMWmByUZxDdMPmvf+8aIfJE5M9F+JXvMysno/JGVQ7XDMmosHNV/oZ2D6rIYhb978ryjJU13gDBKgtTTQzpTbhKCXCOr9kJpWJnL1eerxhrIedAyxuF2gSrykrrtSIIGbduq0SZzyXCPdY9vurY614eKd2qlKWMyxZ6rMLrO6taP1aVEhL31Wj/KYNEk0seY+GN6YqGPRlWtlnNA1YyZM6RtdonvRFXK4Zx1BgqUlcFRMa822TFQvcaoGlnRXqaWQ5pOyoCwvNeymSDxi/3ORm31ZUyWyTSUFGXWCPgWMqq/I1WOSvJq35Oefr5tCUtwgmQToYMsyojX87TnUFj/ad5mTzfpTGgzZ+M3n42hIU8sXGryyd7uCwrzfJ+qmq+NDgGsl80A9xIm/E4c1/pZLvJ8nenYBt3koXFx45iKMJXSgnGlZoICZulYOTBTklDacvbbmFhYbEBtm3oaVpYbAJUeItyhRQmr2o76NRtsScqEo3csYWFhcUdjG0cDrGw+DhBS7EolCT/7pYRxXPGig4+0lTsp+tUZLGMhYWFxZ0MS7AWWwIqsIjlOtkmp4q7vYp8oIC5ni9BikV0dU/hV5xA5nEtLCws7mRYgrXYUmS8AbnUq8kJEcdzde6r2likq3sKskrzDmi7hYWFxXqwBGuxJbhLrluNodbOVlCu8jpY8xFnKYBXuidlFaiFhYXFnQ5LsBZbArlcwhkAL826y6kiWxxAk0OveT2jWhLVL95bWFhY3PmwBGuxRVAL0mkNnvJm+XMiYfpMbZjA64O3uv0WFhYW68MSrIWFhYWFxSbAEqyFhYWFhcUmwBKshYWFhYXFJmDb3UV6yoyFhYWFhYXF7YMlWAsLCwsLi02AJVgLCwsLC4tNgCVYCwsLCwuLTYAlWAsLCwsLi02AJVgLCwsLC4tNgCVYCwsLCwuLTYAlWAsLCwsLi02AJVgLCwsLC4tNwLZfKVZgYWFhYWFhcXthCdbCwsLCwmITYAnWwsLCwsJiE2AJ1sLCwsLCYhOw7VeKVVhYWFhYWFjcXliCtbCwsLCw2ARYgrWwsLCwsNgEWIK1sLCwsLDYBFiCtbCwsLCw2ARs+3c7K7CwsLCwsLC4vbAEa2FhYWFhsQmwBGthYWFhYbEJsARrYWFhYWGxCbAEa2FhYWFhsQnY9u929sPCwsLCwsLi9mLb/7KzHxYWFhYWFha3F5ZgLSwsLCwsNgGWYC0sLCwsLDYB/z9v+NN4/o38PAAAAABJRU5ErkJggg==;" vertex="1" parent="OqICIpuKd2iwtkI5fxDL-1">
          <mxGeometry x="795.82" y="519" width="202.34" height="51" as="geometry" />
        </mxCell>
      </root>
    </mxGraphModel>
  </diagram>
</mxfile>
